<svg width="101" height="40" viewBox="0 0 101 40" fill="none" xmlns="http://www.w3.org/2000/svg">
<path d="M0 31.1295H8.48313V10.6887L0 16.7493V6.83196L8.53786 0.716254H18.3345V31.1295H25.1757V39.2837H0V31.1295Z" fill="url(#paint0_linear_5500_38022)"/>
<path d="M43.7647 40C41.6119 40 39.6052 39.6511 37.7444 38.9532C35.8836 38.2186 34.2599 37.0615 32.8734 35.4821C31.4869 33.9027 30.3923 31.8457 29.5896 29.3113C28.8234 26.7401 28.4403 23.6364 28.4403 20V18.8981C28.4403 15.5188 28.8234 12.6354 29.5896 10.2479C30.3923 7.86042 31.4869 5.91368 32.8734 4.40772C34.2599 2.86502 35.8836 1.74472 37.7444 1.04683C39.6052 0.348945 41.6119 0 43.7647 0C45.9174 0 47.9241 0.348945 49.785 1.04683C51.6458 1.74472 53.2694 2.86502 54.6559 4.40772C56.0424 5.91368 57.1187 7.86042 57.885 10.2479C58.6877 12.6354 59.089 15.5188 59.089 18.8981V20C59.089 23.6364 58.6877 26.7401 57.885 29.3113C57.1187 31.8457 56.0424 33.9027 54.6559 35.4821C53.2694 37.0615 51.6458 38.2186 49.785 38.9532C47.9241 39.6511 45.9174 40 43.7647 40ZM43.7647 31.8457C44.4944 31.8457 45.1876 31.6621 45.8444 31.2948C46.5376 30.9275 47.1214 30.303 47.5957 29.4215C48.1066 28.5032 48.5079 27.2911 48.7998 25.7851C49.0917 24.2424 49.2376 22.3141 49.2376 20V18.8981C49.2376 16.8779 49.0917 15.1882 48.7998 13.8292C48.5079 12.4334 48.1066 11.3131 47.5957 10.4683C47.1214 9.62351 46.5376 9.03582 45.8444 8.70524C45.1876 8.33793 44.4944 8.15427 43.7647 8.15427C43.0349 8.15427 42.3234 8.33793 41.6302 8.70524C40.9734 9.03582 40.3896 9.62351 39.8788 10.4683C39.4045 11.3131 39.0214 12.4334 38.7295 13.8292C38.4376 15.1882 38.2917 16.8779 38.2917 18.8981V20C38.2917 22.3141 38.4376 24.2424 38.7295 25.7851C39.0214 27.2911 39.4045 28.5032 39.8788 29.4215C40.3896 30.303 40.9734 30.9275 41.6302 31.2948C42.3234 31.6621 43.0349 31.8457 43.7647 31.8457Z" fill="url(#paint1_linear_5500_38022)"/>
<path d="M65.4043 0.716254H75.2557V15.978H77.9922L89.7044 0.716254H100.431L85.6544 18.7328L100.979 39.2837H89.4855L77.9922 22.9201H75.2557V39.2837H65.4043V0.716254Z" fill="url(#paint2_linear_5500_38022)"/>
<defs>
<linearGradient id="paint0_linear_5500_38022" x1="-31.3698" y1="62.2878" x2="92.8266" y2="-103.725" gradientUnits="userSpaceOnUse">
<stop offset="0.0989583" stop-color="#FFC62F"/>
<stop offset="0.3424" stop-color="#FFEAA5"/>
<stop offset="0.482125" stop-color="#EBD084"/>
<stop offset="1" stop-color="#A37207"/>
</linearGradient>
<linearGradient id="paint1_linear_5500_38022" x1="-31.3698" y1="62.2878" x2="92.8266" y2="-103.725" gradientUnits="userSpaceOnUse">
<stop offset="0.0989583" stop-color="#FFC62F"/>
<stop offset="0.3424" stop-color="#FFEAA5"/>
<stop offset="0.482125" stop-color="#EBD084"/>
<stop offset="1" stop-color="#A37207"/>
</linearGradient>
<linearGradient id="paint2_linear_5500_38022" x1="-31.3698" y1="62.2878" x2="92.8266" y2="-103.725" gradientUnits="userSpaceOnUse">
<stop offset="0.0989583" stop-color="#FFC62F"/>
<stop offset="0.3424" stop-color="#FFEAA5"/>
<stop offset="0.482125" stop-color="#EBD084"/>
<stop offset="1" stop-color="#A37207"/>
</linearGradient>
</defs>
</svg>
