<svg width="136" height="40" viewBox="0 0 136 40" fill="none" xmlns="http://www.w3.org/2000/svg">
<path d="M0.71875 31.1295H9.12159V10.6887L0.71875 16.7493V6.83196L9.1758 0.716254H18.8797V31.1295H25.6562V39.2837H0.71875V31.1295Z" fill="url(#paint0_linear_5500_38023)"/>
<path d="M44.0692 40C41.9368 40 39.9491 39.6511 38.1059 38.9532C36.2627 38.2186 34.6544 37.0615 33.281 35.4821C31.9076 33.9027 30.8234 31.8457 30.0283 29.3113C29.2693 26.7401 28.8898 23.6364 28.8898 20V18.8981C28.8898 15.5188 29.2693 12.6354 30.0283 10.2479C30.8234 7.86042 31.9076 5.91368 33.281 4.40772C34.6544 2.86502 36.2627 1.74472 38.1059 1.04683C39.9491 0.348945 41.9368 0 44.0692 0C46.2015 0 48.1893 0.348945 50.0325 1.04683C51.8757 1.74472 53.484 2.86502 54.8573 4.40772C56.2307 5.91368 57.2969 7.86042 58.0558 10.2479C58.8509 12.6354 59.2485 15.5188 59.2485 18.8981V20C59.2485 23.6364 58.8509 26.7401 58.0558 29.3113C57.2969 31.8457 56.2307 33.9027 54.8573 35.4821C53.484 37.0615 51.8757 38.2186 50.0325 38.9532C48.1893 39.6511 46.2015 40 44.0692 40ZM44.0692 31.8457C44.792 31.8457 45.4787 31.6621 46.1292 31.2948C46.8159 30.9275 47.3942 30.303 47.864 29.4215C48.37 28.5032 48.7675 27.2911 49.0567 25.7851C49.3458 24.2424 49.4903 22.3141 49.4903 20V18.8981C49.4903 16.8779 49.3458 15.1882 49.0567 13.8292C48.7675 12.4334 48.37 11.3131 47.864 10.4683C47.3942 9.62351 46.8159 9.03582 46.1292 8.70524C45.4787 8.33793 44.792 8.15427 44.0692 8.15427C43.3463 8.15427 42.6416 8.33793 41.9549 8.70524C41.3044 9.03582 40.7261 9.62351 40.2201 10.4683C39.7503 11.3131 39.3708 12.4334 39.0817 13.8292C38.7926 15.1882 38.648 16.8779 38.648 18.8981V20C38.648 22.3141 38.7926 24.2424 39.0817 25.7851C39.3708 27.2911 39.7503 28.5032 40.2201 29.4215C40.7261 30.303 41.3044 30.9275 41.9549 31.2948C42.6416 31.6621 43.3463 31.8457 44.0692 31.8457Z" fill="url(#paint1_linear_5500_38023)"/>
<path d="M79.328 40C77.1957 40 75.2079 39.6511 73.3647 38.9532C71.5215 38.2186 69.9133 37.0615 68.5399 35.4821C67.1665 33.9027 66.0823 31.8457 65.2872 29.3113C64.5282 26.7401 64.1487 23.6364 64.1487 20V18.8981C64.1487 15.5188 64.5282 12.6354 65.2872 10.2479C66.0823 7.86042 67.1665 5.91368 68.5399 4.40772C69.9133 2.86502 71.5215 1.74472 73.3647 1.04683C75.2079 0.348945 77.1957 0 79.328 0C81.4604 0 83.4481 0.348945 85.2913 1.04683C87.1345 1.74472 88.7428 2.86502 90.1162 4.40772C91.4896 5.91368 92.5557 7.86042 93.3147 10.2479C94.1098 12.6354 94.5074 15.5188 94.5074 18.8981V20C94.5074 23.6364 94.1098 26.7401 93.3147 29.3113C92.5557 31.8457 91.4896 33.9027 90.1162 35.4821C88.7428 37.0615 87.1345 38.2186 85.2913 38.9532C83.4481 39.6511 81.4604 40 79.328 40ZM79.328 31.8457C80.0509 31.8457 80.7376 31.6621 81.3881 31.2948C82.0748 30.9275 82.653 30.303 83.1229 29.4215C83.6288 28.5032 84.0264 27.2911 84.3155 25.7851C84.6047 24.2424 84.7492 22.3141 84.7492 20V18.8981C84.7492 16.8779 84.6047 15.1882 84.3155 13.8292C84.0264 12.4334 83.6288 11.3131 83.1229 10.4683C82.653 9.62351 82.0748 9.03582 81.3881 8.70524C80.7376 8.33793 80.0509 8.15427 79.328 8.15427C78.6052 8.15427 77.9005 8.33793 77.2138 8.70524C76.5632 9.03582 75.985 9.62351 75.479 10.4683C75.0092 11.3131 74.6297 12.4334 74.3405 13.8292C74.0514 15.1882 73.9069 16.8779 73.9069 18.8981V20C73.9069 22.3141 74.0514 24.2424 74.3405 25.7851C74.6297 27.2911 75.0092 28.5032 75.479 29.4215C75.985 30.303 76.5632 30.9275 77.2138 31.2948C77.9005 31.6621 78.6052 31.8457 79.328 31.8457Z" fill="url(#paint2_linear_5500_38023)"/>
<path d="M100.763 0.716254H110.521V15.978H113.232L124.833 0.716254H135.458L120.821 18.7328L136.001 39.2837H124.616L113.232 22.9201H110.521V39.2837H100.763V0.716254Z" fill="url(#paint3_linear_5500_38023)"/>
<defs>
<linearGradient id="paint0_linear_5500_38023" x1="-29.4348" y1="62.2878" x2="84.8158" y2="-128.064" gradientUnits="userSpaceOnUse">
<stop offset="0.0989583" stop-color="#FFC62F"/>
<stop offset="0.3424" stop-color="#FFEAA5"/>
<stop offset="0.482125" stop-color="#EBD084"/>
<stop offset="1" stop-color="#A37207"/>
</linearGradient>
<linearGradient id="paint1_linear_5500_38023" x1="-29.4348" y1="62.2878" x2="84.8158" y2="-128.064" gradientUnits="userSpaceOnUse">
<stop offset="0.0989583" stop-color="#FFC62F"/>
<stop offset="0.3424" stop-color="#FFEAA5"/>
<stop offset="0.482125" stop-color="#EBD084"/>
<stop offset="1" stop-color="#A37207"/>
</linearGradient>
<linearGradient id="paint2_linear_5500_38023" x1="-29.4348" y1="62.2878" x2="84.8158" y2="-128.064" gradientUnits="userSpaceOnUse">
<stop offset="0.0989583" stop-color="#FFC62F"/>
<stop offset="0.3424" stop-color="#FFEAA5"/>
<stop offset="0.482125" stop-color="#EBD084"/>
<stop offset="1" stop-color="#A37207"/>
</linearGradient>
<linearGradient id="paint3_linear_5500_38023" x1="-29.4348" y1="62.2878" x2="84.8158" y2="-128.064" gradientUnits="userSpaceOnUse">
<stop offset="0.0989583" stop-color="#FFC62F"/>
<stop offset="0.3424" stop-color="#FFEAA5"/>
<stop offset="0.482125" stop-color="#EBD084"/>
<stop offset="1" stop-color="#A37207"/>
</linearGradient>
</defs>
</svg>
