<svg width="60" height="40" viewBox="0 0 60 40" fill="none" xmlns="http://www.w3.org/2000/svg">
<path d="M9.53505 23.2258H0V14.9229H9.53505V4.76859H17.7845V14.9229H27.3195V23.2258H17.7845V33.3801H9.53505V23.2258Z" fill="url(#paint0_linear_5500_38021)"/>
<path d="M45.5367 40C42.9655 40 40.8049 39.6634 39.055 38.9902C37.3052 38.2796 35.8767 37.3446 34.7696 36.1851C33.6983 35.0257 32.9126 33.6793 32.4126 32.1459C31.9127 30.575 31.6448 28.9294 31.6091 27.209H40.9299C41.0013 28.705 41.4477 29.9205 42.2691 30.8555C43.0905 31.7532 44.1797 32.202 45.5367 32.202C47.2152 32.202 48.4115 31.6597 49.1258 30.575C49.8757 29.453 50.2507 27.8822 50.2507 25.8626C50.2507 23.7307 49.8043 22.2534 48.9115 21.4306C48.0187 20.5704 46.8938 20.1403 45.5367 20.1403C43.644 20.1403 42.1798 20.907 41.1442 22.4404H32.4126V0H57.9109V8.24684H41.6798V13.7447C43.1797 12.5853 45.2332 12.0056 47.8401 12.0056C49.6257 12.0056 51.2685 12.3048 52.7684 12.9032C54.2683 13.4642 55.5539 14.3245 56.6252 15.4839C57.6966 16.6433 58.518 18.0832 59.0893 19.8036C59.6964 21.4867 60 23.4689 60 25.7503C60 27.9196 59.6607 29.8831 58.9822 31.641C58.3037 33.3988 57.3395 34.8948 56.0896 36.129C54.8396 37.3633 53.3219 38.317 51.5363 38.9902C49.7507 39.6634 47.7509 40 45.5367 40Z" fill="url(#paint1_linear_5500_38021)"/>
<defs>
<linearGradient id="paint0_linear_5500_38021" x1="-0.886176" y1="62.6942" x2="117.274" y2="-10.6867" gradientUnits="userSpaceOnUse">
<stop offset="0.0989583" stop-color="#FFC62F"/>
<stop offset="0.3424" stop-color="#FFEAA5"/>
<stop offset="0.482125" stop-color="#EBD084"/>
<stop offset="1" stop-color="#A37207"/>
</linearGradient>
<linearGradient id="paint1_linear_5500_38021" x1="-0.886176" y1="62.6942" x2="117.274" y2="-10.6867" gradientUnits="userSpaceOnUse">
<stop offset="0.0989583" stop-color="#FFC62F"/>
<stop offset="0.3424" stop-color="#FFEAA5"/>
<stop offset="0.482125" stop-color="#EBD084"/>
<stop offset="1" stop-color="#A37207"/>
</linearGradient>
</defs>
</svg>
