<svg width="40" height="40" viewBox="0 0 40 40" fill="none" xmlns="http://www.w3.org/2000/svg">
<path d="M20 0C8.96 0 0 8.96 0 20C0 31.04 8.96 40 20 40C31.04 40 40 31.04 40 20C40 8.96 31.04 0 20 0ZM32 21.48C31.76 27.66 26.66 32.76 20.48 33C17.6259 33.1145 14.8248 32.2063 12.5808 30.439C10.3369 28.6717 8.79754 26.1614 8.24 23.36C7.98 22.14 8.96 21 10.2 21C11.14 21 11.96 21.66 12.16 22.6C12.3692 23.63 12.7795 24.6087 13.3673 25.48C13.9552 26.3513 14.7091 27.0981 15.5859 27.6777C16.4627 28.2573 17.4452 28.6583 18.4772 28.8577C19.5092 29.0572 20.5704 29.0512 21.6 28.84C24.72 28.24 27.24 25.72 27.84 22.6C28.0773 21.4375 28.053 20.2369 27.769 19.0849C27.485 17.933 26.9483 16.8587 26.1979 15.9397C25.4474 15.0208 24.502 14.2803 23.43 13.7718C22.3581 13.2634 21.1864 12.9998 20 13V16.58C20 17.48 18.92 17.92 18.3 17.28L12.7 11.7C12.3 11.3 12.3 10.68 12.7 10.28L18.28 4.7C18.92 4.08 20 4.52 20 5.42V9C21.6163 9.00151 23.2156 9.32896 24.7024 9.96278C26.1893 10.5966 27.533 11.5238 28.6532 12.6888C29.7735 13.8539 30.6473 15.2329 31.2223 16.7434C31.7973 18.2539 32.0619 19.8649 32 21.48Z" fill="url(#paint0_linear_5500_38019)"/>
<defs>
<linearGradient id="paint0_linear_5500_38019" x1="1.02562" y1="43.7308" x2="68.6973" y2="-4.81367" gradientUnits="userSpaceOnUse">
<stop offset="0.0989583" stop-color="#FFC62F"/>
<stop offset="0.3424" stop-color="#FFEAA5"/>
<stop offset="0.482125" stop-color="#EBD084"/>
<stop offset="1" stop-color="#A37207"/>
</linearGradient>
</defs>
</svg>
