<svg width="100" height="100" viewBox="0 0 100 100" fill="none" xmlns="http://www.w3.org/2000/svg">
<rect width="100" height="100" fill="url(#paint0_linear_5078_8690)"/>
<mask id="mask0_5078_8690" style="mask-type:alpha" maskUnits="userSpaceOnUse" x="0" y="0" width="100" height="100">
<rect width="100" height="100" rx="12" fill="url(#paint1_linear_5078_8690)"/>
</mask>
<g mask="url(#mask0_5078_8690)">
<path d="M40.8425 -24L49.4862 49.4999L58.1575 -24H40.8425ZM17.6275 -16.7214L9.83449 -12.9585L49.4862 49.4999L25.4207 -20.4843L17.6275 -16.7214ZM-13.2981 10.4428L49.5138 49.4999L-2.51394 -3.09806L-13.2981 10.4428ZM-22.0792 33.13L-24 41.5621L49.5138 49.4725L-20.1583 24.6979L-22.0792 33.13ZM-22.0792 65.8425L-20.1583 74.2746L49.5138 49.4725L-24 57.3828L-22.0792 65.8425ZM-7.91975 95.3139L-2.54138 102.071L49.4862 49.4725L-13.2981 88.5572L-7.91975 95.3139ZM17.6275 115.721L25.4207 119.484L49.4862 49.4999L9.86193 111.959L17.6275 115.721ZM58.1575 123L49.5138 49.4999L40.8699 123H58.1575ZM81.345 115.721L89.1381 111.959L49.4862 49.4999L73.5519 119.484L81.345 115.721ZM106.92 95.3139L112.298 88.5572L49.4862 49.4999L101.514 102.098L106.92 95.3139ZM119.158 74.3021L121.079 65.87L123 57.4377L49.4862 49.5274L119.158 74.3021ZM121.079 33.13L119.158 24.6979L49.4862 49.4999L123 41.5896L121.079 33.13ZM101.514 -3.09806L49.4862 49.4999L112.298 10.4428L101.514 -3.09806ZM81.345 -16.7214L73.5519 -20.4843L49.4862 49.4999L89.1381 -12.9585L81.345 -16.7214Z" fill="url(#paint2_radial_5078_8690)"/>
</g>
<g filter="url(#filter0_d_5078_8690)">
<path d="M44.5271 55.0317C44.5271 54.0822 44.6562 53.219 44.9146 52.4421C45.216 51.6221 45.625 50.8669 46.1417 50.1763C46.6583 49.4858 47.2611 48.8168 47.95 48.1694C48.6819 47.522 49.4569 46.8747 50.275 46.2273C51.6958 45.0188 52.7937 43.9399 53.5687 42.9904C54.3868 41.9977 54.7958 40.9403 54.7958 39.8182C54.7958 38.3939 54.3653 37.2934 53.5042 36.5165C52.6431 35.6965 51.3083 35.2865 49.5 35.2865C47.7778 35.2865 46.4646 35.7397 45.5604 36.646C44.6562 37.5523 44.2042 38.8255 44.2042 40.4656H34C34 38.6097 34.366 36.8834 35.0979 35.2865C35.8299 33.6465 36.8632 32.2222 38.1979 31.0138C39.5326 29.7622 41.1472 28.7911 43.0417 28.1006C44.9792 27.3669 47.1319 27 49.5 27C51.9972 27 54.2146 27.3237 56.1521 27.9711C58.0896 28.6185 59.7042 29.5032 60.9958 30.6253C62.3306 31.7475 63.3208 33.0638 63.9667 34.5744C64.6556 36.0849 65 37.725 65 39.4945C65 40.8324 64.8278 42.0409 64.4833 43.1198C64.1819 44.1988 63.7514 45.1915 63.1917 46.0978C62.675 46.961 62.0722 47.7594 61.3833 48.4931C60.6944 49.2268 60.0056 49.8958 59.3167 50.5C58.1972 51.4927 57.3146 52.3127 56.6687 52.9601C56.0229 53.6074 55.5278 54.1469 55.1833 54.5785C54.8819 55.0101 54.6882 55.3985 54.6021 55.7438C54.516 56.0459 54.4729 56.348 54.4729 56.6501V57.6212H44.5271V55.0317ZM49.5 74C47.7778 74 46.3139 73.4174 45.1083 72.2521C43.9458 71.0436 43.3646 69.5762 43.3646 67.8499C43.3646 66.1235 43.9458 64.6777 45.1083 63.5124C46.3139 62.304 47.7778 61.6997 49.5 61.6997C51.2222 61.6997 52.6646 62.304 53.8271 63.5124C55.0326 64.6777 55.6354 66.1235 55.6354 67.8499C55.6354 69.5762 55.0326 71.0436 53.8271 72.2521C52.6646 73.4174 51.2222 74 49.5 74Z" fill="white"/>
</g>
<defs>
<filter id="filter0_d_5078_8690" x="30" y="25" width="39" height="55" filterUnits="userSpaceOnUse" color-interpolation-filters="sRGB">
<feFlood flood-opacity="0" result="BackgroundImageFix"/>
<feColorMatrix in="SourceAlpha" type="matrix" values="0 0 0 0 0 0 0 0 0 0 0 0 0 0 0 0 0 0 127 0" result="hardAlpha"/>
<feOffset dy="2"/>
<feGaussianBlur stdDeviation="2"/>
<feComposite in2="hardAlpha" operator="out"/>
<feColorMatrix type="matrix" values="0 0 0 0 0 0 0 0 0 0 0 0 0 0 0 0 0 0 0.25 0"/>
<feBlend mode="normal" in2="BackgroundImageFix" result="effect1_dropShadow_5078_8690"/>
<feBlend mode="normal" in="SourceGraphic" in2="effect1_dropShadow_5078_8690" result="shape"/>
</filter>
<linearGradient id="paint0_linear_5078_8690" x1="13.1818" y1="100" x2="82.7272" y2="5.45445" gradientUnits="userSpaceOnUse">
<stop stop-color="#0073FF"/>
<stop offset="1" stop-color="#00C2FF"/>
</linearGradient>
<linearGradient id="paint1_linear_5078_8690" x1="13.1818" y1="100" x2="82.7272" y2="5.45445" gradientUnits="userSpaceOnUse">
<stop stop-color="#0073FF"/>
<stop offset="1" stop-color="#00C2FF"/>
</linearGradient>
<radialGradient id="paint2_radial_5078_8690" cx="0" cy="0" r="1" gradientUnits="userSpaceOnUse" gradientTransform="translate(49.4981 49.4982) scale(73.471 73.5396)">
<stop stop-color="white" stop-opacity="0.25"/>
<stop offset="0.411458" stop-color="white" stop-opacity="0.05"/>
</radialGradient>
</defs>
</svg>
