<svg width="20" height="20" viewBox="0 0 20 20" fill="none" xmlns="http://www.w3.org/2000/svg">
<path d="M10.8986 19.63C10.6617 19.8669 10.3405 20 10.0055 20C9.66402 20 9.33711 19.8618 9.09925 19.6168L8.21177 18.7027C7.42714 17.8946 6.34874 17.4386 5.22237 17.4386H3.82623C3.49213 17.4386 3.17066 17.3109 2.92764 17.0816C2.6654 16.8342 2.51675 16.4896 2.51675 16.1291V14.7946C2.51675 13.7022 2.08777 12.6535 1.32217 11.8743L0.370521 10.9058C0.133057 10.6641 0 10.3388 0 10C0 9.66118 0.133057 9.33591 0.370521 9.09423L1.32217 8.12569C2.08777 7.3465 2.51675 6.29782 2.51675 5.20545V3.85601C2.51675 3.49549 2.6654 3.15091 2.92764 2.90351C3.17066 2.67424 3.49213 2.54654 3.82623 2.54654H5.22952C6.35168 2.54654 7.42641 2.0939 8.21046 1.29108L9.09812 0.382149C9.33678 0.137777 9.66391 0 10.0055 0C10.3406 0 10.6621 0.13261 10.8997 0.368863L11.8712 1.33473C12.6519 2.11088 13.708 2.54654 14.8089 2.54654H16.195C16.5244 2.54654 16.8406 2.67566 17.0758 2.90618C17.3174 3.14287 17.4535 3.4668 17.4535 3.80497V5.19112C17.4535 6.29198 17.8891 7.34811 18.6653 8.1288L19.6296 9.09872C19.8668 9.33738 20 9.66023 20 9.99675C20 10.3371 19.8638 10.6633 19.6217 10.9026L18.6463 11.8669C17.8544 12.6496 17.4088 13.7167 17.4088 14.8301V16.1675C17.4088 16.5046 17.2749 16.8279 17.0365 17.0663C16.7981 17.3046 16.4748 17.4386 16.1377 17.4386H14.816C13.7109 17.4386 12.6511 17.8776 11.8697 18.659L10.8986 19.63Z" fill="#FCFE5D"/>
<path d="M14.1285 8.14955L9.50086 12.6354C9.43637 12.6982 9.35975 12.7479 9.27537 12.7819C9.191 12.8159 9.10053 12.8333 9.00918 12.8333C8.91782 12.8333 8.82735 12.8159 8.74298 12.7819C8.65861 12.7479 8.58198 12.6982 8.51749 12.6354L6.20366 10.3925C6.13909 10.3299 6.08788 10.2556 6.05293 10.1738C6.01799 10.092 6 10.0044 6 9.91586C6 9.82735 6.01799 9.7397 6.05293 9.65792C6.08788 9.57614 6.13909 9.50183 6.20366 9.43924C6.26823 9.37665 6.34489 9.327 6.42925 9.29312C6.51362 9.25925 6.60404 9.24181 6.69535 9.24181C6.78667 9.24181 6.87709 9.25925 6.96145 9.29312C7.04581 9.327 7.12247 9.37665 7.18704 9.43924L9.00975 11.2061L13.1463 7.19742C13.2767 7.07102 13.4536 7 13.638 7C13.8224 7 13.9993 7.07102 14.1297 7.19742C14.2601 7.32383 14.3333 7.49528 14.3333 7.67405C14.3333 7.85282 14.2601 8.02426 14.1297 8.15067L14.1285 8.14955Z" fill="black"/>
</svg>
