<svg width="24" height="24" viewBox="0 0 24 24" fill="none" xmlns="http://www.w3.org/2000/svg">
<circle cx="12" cy="12" r="12" fill="url(#paint0_linear_5160_37033)"/>
<circle cx="12" cy="12" r="11.7778" stroke="url(#paint1_linear_5160_37033)" stroke-opacity="0.35" stroke-width="0.444444"/>
<g filter="url(#filter0_i_5160_37033)">
<circle cx="11.9974" cy="11.9993" r="9.33333" fill="url(#paint2_linear_5160_37033)"/>
</g>
<path fill-rule="evenodd" clip-rule="evenodd" d="M12.0052 8.88932C12.7416 8.88932 13.3385 8.29237 13.3385 7.55599C13.3385 6.81961 12.7416 6.22266 12.0052 6.22266C11.2688 6.22266 10.6719 6.81961 10.6719 7.55599C10.6719 8.29237 11.2688 8.88932 12.0052 8.88932ZM12.0052 9.77734C11.2688 9.77734 10.6719 10.3743 10.6719 11.1107V16.444C10.6719 17.1804 11.2688 17.7773 12.0052 17.7773C12.7416 17.7773 13.3385 17.1804 13.3385 16.444V11.1107C13.3385 10.3743 12.7416 9.77734 12.0052 9.77734Z" fill="white"/>
<defs>
<filter id="filter0_i_5160_37033" x="2.66406" y="2.66602" width="18.6641" height="20.4438" filterUnits="userSpaceOnUse" color-interpolation-filters="sRGB">
<feFlood flood-opacity="0" result="BackgroundImageFix"/>
<feBlend mode="normal" in="SourceGraphic" in2="BackgroundImageFix" result="shape"/>
<feColorMatrix in="SourceAlpha" type="matrix" values="0 0 0 0 0 0 0 0 0 0 0 0 0 0 0 0 0 0 127 0" result="hardAlpha"/>
<feOffset dy="1.77778"/>
<feGaussianBlur stdDeviation="1.33333"/>
<feComposite in2="hardAlpha" operator="arithmetic" k2="-1" k3="1"/>
<feColorMatrix type="matrix" values="0 0 0 0 0 0 0 0 0 0.870588 0 0 0 0 1 0 0 0 1 0"/>
<feBlend mode="normal" in2="shape" result="effect1_innerShadow_5160_37033"/>
</filter>
<linearGradient id="paint0_linear_5160_37033" x1="12" y1="0" x2="12" y2="24" gradientUnits="userSpaceOnUse">
<stop stop-color="#0073FF"/>
<stop offset="1" stop-color="#00DEFF"/>
</linearGradient>
<linearGradient id="paint1_linear_5160_37033" x1="12" y1="0" x2="12" y2="24" gradientUnits="userSpaceOnUse">
<stop stop-color="#00DEFF"/>
<stop offset="1" stop-color="#0073FF"/>
</linearGradient>
<linearGradient id="paint2_linear_5160_37033" x1="11.9974" y1="2.66602" x2="11.9974" y2="21.3327" gradientUnits="userSpaceOnUse">
<stop stop-color="#0073FF"/>
<stop offset="0.760417" stop-color="#00DEFF"/>
</linearGradient>
</defs>
</svg>
