<svg width="43" height="43" viewBox="0 0 43 43" fill="none" xmlns="http://www.w3.org/2000/svg">
<g filter="url(#filter0_d_4681_35948)">
<circle cx="13.5" cy="13.5" r="13.5" transform="matrix(-1 0 0 1 35 6)" fill="url(#paint0_linear_4681_35948)"/>
<circle cx="13.5" cy="13.5" r="13.25" transform="matrix(-1 0 0 1 35 6)" stroke="url(#paint1_linear_4681_35948)" stroke-opacity="0.35" stroke-width="0.5"/>
</g>
<g filter="url(#filter1_di_4681_35948)">
<circle cx="10.5" cy="10.5" r="10.5" transform="matrix(-1 0 0 1 32 9)" fill="url(#paint2_linear_4681_35948)"/>
</g>
<g clip-path="url(#clip0_4681_35948)">
<path d="M20.875 20.7504V25.7504H18.375C17.8777 25.7504 17.4008 25.5528 17.0492 25.2012C16.6975 24.8496 16.5 24.3726 16.5 23.8754V21.3754C16.5 21.2096 16.5658 21.0506 16.6831 20.9334C16.8003 20.8162 16.9592 20.7504 17.125 20.7504H20.875ZM25.875 20.7504C26.0408 20.7504 26.1997 20.8162 26.3169 20.9334C26.4342 21.0506 26.5 21.2096 26.5 21.3754V23.8754C26.5 24.3726 26.3025 24.8496 25.9508 25.2012C25.5992 25.5528 25.1223 25.7504 24.625 25.7504H22.125V20.7504H25.875ZM24.3125 13.2504C24.6816 13.2503 25.0447 13.3436 25.368 13.5216C25.6913 13.6996 25.9643 13.9565 26.1616 14.2684C26.3589 14.5803 26.4741 14.9371 26.4964 15.3055C26.5188 15.6739 26.4475 16.0419 26.2894 16.3754H26.5C26.8315 16.3754 27.1495 16.5071 27.3839 16.7415C27.6183 16.9759 27.75 17.2938 27.75 17.6254V18.2504C27.75 18.5819 27.6183 18.8998 27.3839 19.1342C27.1495 19.3687 26.8315 19.5004 26.5 19.5004H22.125V16.3754H20.875V19.5004H16.5C16.1685 19.5004 15.8505 19.3687 15.6161 19.1342C15.3817 18.8998 15.25 18.5819 15.25 18.2504V17.6254C15.25 17.2938 15.3817 16.9759 15.6161 16.7415C15.8505 16.5071 16.1685 16.3754 16.5 16.3754H16.7106C16.5715 16.0824 16.4996 15.7621 16.5 15.4379C16.5 14.2297 17.4794 13.2504 18.6769 13.2504C19.7737 13.2316 20.7469 13.9329 21.415 15.0841L21.5 15.236C22.1456 14.0397 23.1 13.2897 24.1819 13.2516L24.3125 13.2504ZM18.6875 14.5004C18.4389 14.5004 18.2004 14.5991 18.0246 14.775C17.8488 14.9508 17.75 15.1892 17.75 15.4379C17.75 15.6865 17.8488 15.925 18.0246 16.1008C18.2004 16.2766 18.4389 16.3754 18.6875 16.3754H20.6519C20.1887 15.1847 19.4338 14.4879 18.6875 14.5004ZM24.3019 14.5004C23.5644 14.4879 22.8113 15.1854 22.3481 16.3754H24.3125C24.5611 16.374 24.799 16.2738 24.9739 16.097C25.1487 15.9202 25.2461 15.6812 25.2447 15.4326C25.2433 15.1839 25.1432 14.946 24.9663 14.7712C24.7895 14.5964 24.5505 14.499 24.3019 14.5004Z" fill="#34353F"/>
</g>
<defs>
<filter id="filter0_d_4681_35948" x="0" y="0" width="43" height="43" filterUnits="userSpaceOnUse" color-interpolation-filters="sRGB">
<feFlood flood-opacity="0" result="BackgroundImageFix"/>
<feColorMatrix in="SourceAlpha" type="matrix" values="0 0 0 0 0 0 0 0 0 0 0 0 0 0 0 0 0 0 127 0" result="hardAlpha"/>
<feOffset dy="2"/>
<feGaussianBlur stdDeviation="4"/>
<feComposite in2="hardAlpha" operator="out"/>
<feColorMatrix type="matrix" values="0 0 0 0 1 0 0 0 0 0.775817 0 0 0 0 0.183333 0 0 0 0.5 0"/>
<feBlend mode="normal" in2="BackgroundImageFix" result="effect1_dropShadow_4681_35948"/>
<feBlend mode="normal" in="SourceGraphic" in2="effect1_dropShadow_4681_35948" result="shape"/>
</filter>
<filter id="filter1_di_4681_35948" x="9" y="9" width="25" height="25" filterUnits="userSpaceOnUse" color-interpolation-filters="sRGB">
<feFlood flood-opacity="0" result="BackgroundImageFix"/>
<feColorMatrix in="SourceAlpha" type="matrix" values="0 0 0 0 0 0 0 0 0 0 0 0 0 0 0 0 0 0 127 0" result="hardAlpha"/>
<feOffset dy="2"/>
<feGaussianBlur stdDeviation="1"/>
<feComposite in2="hardAlpha" operator="out"/>
<feColorMatrix type="matrix" values="0 0 0 0 0.6875 0 0 0 0 0.498774 0 0 0 0 0 0 0 0 0.5 0"/>
<feBlend mode="normal" in2="BackgroundImageFix" result="effect1_dropShadow_4681_35948"/>
<feBlend mode="normal" in="SourceGraphic" in2="effect1_dropShadow_4681_35948" result="shape"/>
<feColorMatrix in="SourceAlpha" type="matrix" values="0 0 0 0 0 0 0 0 0 0 0 0 0 0 0 0 0 0 127 0" result="hardAlpha"/>
<feOffset dy="3"/>
<feGaussianBlur stdDeviation="2"/>
<feComposite in2="hardAlpha" operator="arithmetic" k2="-1" k3="1"/>
<feColorMatrix type="matrix" values="0 0 0 0 1 0 0 0 0 0.941789 0 0 0 0 0.757031 0 0 0 1 0"/>
<feBlend mode="normal" in2="shape" result="effect2_innerShadow_4681_35948"/>
</filter>
<linearGradient id="paint0_linear_4681_35948" x1="14" y1="-0.999999" x2="14.9919" y2="26.9826" gradientUnits="userSpaceOnUse">
<stop stop-color="#FF716F"/>
<stop offset="1" stop-color="#FCE217"/>
</linearGradient>
<linearGradient id="paint1_linear_4681_35948" x1="13.5" y1="0" x2="13.5" y2="27" gradientUnits="userSpaceOnUse">
<stop stop-color="#FFC62F"/>
<stop offset="1" stop-color="white"/>
</linearGradient>
<linearGradient id="paint2_linear_4681_35948" x1="10.5" y1="0" x2="10.5" y2="21" gradientUnits="userSpaceOnUse">
<stop stop-color="#FFC62F"/>
<stop offset="0.760417" stop-color="#FFB900"/>
</linearGradient>
<clipPath id="clip0_4681_35948">
<rect width="15" height="15" fill="white" transform="translate(14 12)"/>
</clipPath>
</defs>
</svg>
