<svg width="40" height="40" viewBox="0 0 40 40" fill="none" xmlns="http://www.w3.org/2000/svg">
<g id="Frame 1171275379" clip-path="url(#clip0_4966_6131)">
<rect id="Rectangle 41884" width="40" height="40" rx="6" transform="matrix(-1 0 0 1 40 0)" fill="white"/>
<g id="Group 1171275345">
<g id="Group">
<path id="Vector" d="M13.9647 22.75L22.0593 23.6561L28.2812 27.6732L19.5322 27.0591L13.9647 22.75Z" fill="#0073FF"/>
<g id="Vector_2">
<path d="M14.7893 23.0605L19.7125 26.8662L21.3032 26.977L21.9375 23.866L14.7893 23.0605Z" fill="white"/>
<path d="M14.7893 23.0605L19.7125 26.8662L21.3032 26.977L21.9375 23.866L14.7893 23.0605Z" fill="url(#paint0_linear_4966_6131)"/>
</g>
<g id="Vector_3">
<path d="M21.9404 23.8672L21.3061 26.9782L27.4375 27.4111L21.9404 23.8672Z" fill="white"/>
<path d="M21.9404 23.8672L21.3061 26.9782L27.4375 27.4111L21.9404 23.8672Z" fill="url(#paint1_linear_4966_6131)"/>
</g>
<path id="Vector_4" d="M13.9637 22.75L12.3327 31.6702L17.7392 36.1001L19.5312 27.0591L13.9637 22.75Z" fill="url(#paint2_linear_4966_6131)"/>
<path id="Vector_5" d="M14.384 24.248L13.1255 31.1647L17.3138 34.5979L18.7031 27.5906L14.384 24.248Z" stroke="#F6C300" stroke-width="0.0831409" stroke-miterlimit="10"/>
<path id="Vector_6" d="M28.2812 27.6727L26.4388 36.7339L17.7401 36.0996L19.5322 27.0586L28.2812 27.6727Z" fill="url(#paint3_linear_4966_6131)"/>
<g id="Vector_7">
<path d="M23.3754 30.1875L22.6103 31.3151L21.2511 31.3252L22.0867 32.4024L21.684 33.7012L22.9627 33.228L24.0701 34.0234L24.0198 32.6642L25.1172 31.8487L23.8084 31.4762L23.3754 30.1875Z" fill="white"/>
<path d="M23.3754 30.1875L22.6103 31.3151L21.2511 31.3252L22.0867 32.4024L21.684 33.7012L22.9627 33.228L24.0701 34.0234L24.0198 32.6642L25.1172 31.8487L23.8084 31.4762L23.3754 30.1875Z" fill="url(#paint4_linear_4966_6131)"/>
</g>
<path id="Vector_8" d="M27.3281 28.4272L25.8179 35.8573L18.6899 35.3439L20.1598 27.9238L27.3281 28.4272Z" stroke="#F6C300" stroke-width="0.0831409" stroke-miterlimit="10"/>
<g id="Group_2">
<g id="Clip path group">
<mask id="mask0_4966_6131" style="mask-type:luminance" maskUnits="userSpaceOnUse" x="16" y="16" width="12" height="12">
<g id="SVGID_2_">
<path id="Vector_9" d="M16.5869 24.4496L19.708 26.8659L21.2987 26.9766L24.9534 27.2384L27.7422 25.6074L27.1381 20.0298L17.1507 16.5664L16.5869 24.4496Z" fill="white"/>
</g>
</mask>
<g mask="url(#mask0_4966_6131)">
<path id="Vector_10" d="M21.6538 19.8398C22.3183 20.0009 24.5433 20.6855 24.2815 21.8031C24.0197 22.9206 21.2913 22.8703 19.9825 22.7495C17.9488 22.5582 17.0024 22.0649 17.2843 21.6722C17.5763 21.2594 19.6805 21.3702 21.8954 22.0649C22.7512 22.3367 25.2178 23.273 24.8252 24.4812C24.3218 26.0215 20.6168 25.9209 19.026 25.2665C17.9991 24.8436 18.4018 24.0784 20.3349 24.5718C23.1237 25.2866 21.9256 26.837 21.3719 27.1693" stroke="#0073FF" stroke-width="0.235327" stroke-miterlimit="10" stroke-linecap="round"/>
</g>
</g>
</g>
<g id="Group_3">
<path id="Vector_11" d="M15.2496 31.3764C14.5224 31.2773 14.0649 30.2279 14.2278 29.0324C14.3907 27.8369 15.1123 26.9481 15.8395 27.0472C16.5667 27.1462 17.0242 28.1957 16.8613 29.3912C16.6984 30.5867 15.9768 31.4755 15.2496 31.3764Z" fill="#0073FF"/>
<g id="Vector_12">
<path d="M14.0949 28.9387C13.9339 30.0966 14.3768 31.1134 15.0917 31.2141C15.7964 31.3148 16.5012 30.4489 16.6623 29.2911C16.8233 28.1333 16.3804 27.1165 15.6655 27.0158C14.9507 26.9151 14.246 27.7809 14.0949 28.9387Z" fill="white"/>
<path d="M14.0949 28.9387C13.9339 30.0966 14.3768 31.1134 15.0917 31.2141C15.7964 31.3148 16.5012 30.4489 16.6623 29.2911C16.8233 28.1333 16.3804 27.1165 15.6655 27.0158C14.9507 26.9151 14.246 27.7809 14.0949 28.9387Z" fill="url(#paint5_linear_4966_6131)"/>
</g>
<path id="Vector_13" d="M14.8375 30.5941C14.2976 30.5205 13.9573 29.7463 14.0774 28.8648C14.1975 27.9833 14.7325 27.3284 15.2724 27.402C15.8123 27.4755 16.1526 28.2497 16.0325 29.1312C15.9124 30.0127 15.3774 30.6676 14.8375 30.5941Z" fill="#0073FF"/>
<g id="Vector_14">
<path d="M14.7064 30.4929C14.183 30.4216 13.8537 29.6671 13.9708 28.8077C14.0879 27.9482 14.6071 27.3093 15.1305 27.3806C15.6538 27.452 15.9832 28.2065 15.8661 29.0659C15.749 29.9253 15.2298 30.5642 14.7064 30.4929Z" fill="white"/>
<path d="M14.7064 30.4929C14.183 30.4216 13.8537 29.6671 13.9708 28.8077C14.0879 27.9482 14.6071 27.3093 15.1305 27.3806C15.6538 27.452 15.9832 28.2065 15.8661 29.0659C15.749 29.9253 15.2298 30.5642 14.7064 30.4929Z" fill="url(#paint6_linear_4966_6131)"/>
</g>
<g id="Group_4">
<path id="Vector_15" d="M14.7969 28.9282L14.0619 28.757C13.921 28.7268 13.8203 28.606 13.8001 28.4651L13.6391 26.6428C13.629 26.4817 13.4981 26.3508 13.327 26.3407L12.8236 26.3105" stroke="#E6E6E6" stroke-width="0.169242" stroke-miterlimit="10" stroke-linecap="round"/>
<g id="Group_5">
<path id="Vector_16" d="M12.661 25.9282C12.8724 25.9483 13.0234 26.1296 13.0234 26.341C13.0234 26.5524 12.8624 26.7236 12.661 26.7538L11.9663 26.8343V25.8477L12.661 25.9282Z" fill="#0073FF"/>
<g id="Vector_17">
<path d="M11.7445 26.341C11.7445 26.6128 11.8452 26.8343 11.966 26.8343C12.0868 26.8343 12.1875 26.6128 12.1875 26.341C12.1875 26.0691 12.0868 25.8477 11.966 25.8477C11.8452 25.8477 11.7445 26.0691 11.7445 26.341Z" fill="white"/>
<path d="M11.7445 26.341C11.7445 26.6128 11.8452 26.8343 11.966 26.8343C12.0868 26.8343 12.1875 26.6128 12.1875 26.341C12.1875 26.0691 12.0868 25.8477 11.966 25.8477C11.8452 25.8477 11.7445 26.0691 11.7445 26.341Z" fill="url(#paint7_linear_4966_6131)"/>
</g>
</g>
</g>
</g>
</g>
<g id="Group_6">
<g id="Vector_18">
<path d="M14.6351 20.1529C12.5813 15.3807 10.1449 13.3269 7.34598 13.3671C5.21158 13.3974 3.50003 14.3538 3.09731 16.5989C2.30195 15.8741 2.08046 12.2295 5.48341 10.5481C8.88637 8.85672 13.9807 9.40039 17.3031 12.5516C20.6256 15.7029 20.8672 19.0354 20.8672 19.0354L14.6351 20.1529Z" fill="white"/>
<path d="M14.6351 20.1529C12.5813 15.3807 10.1449 13.3269 7.34598 13.3671C5.21158 13.3974 3.50003 14.3538 3.09731 16.5989C2.30195 15.8741 2.08046 12.2295 5.48341 10.5481C8.88637 8.85672 13.9807 9.40039 17.3031 12.5516C20.6256 15.7029 20.8672 19.0354 20.8672 19.0354L14.6351 20.1529Z" fill="url(#paint8_linear_4966_6131)"/>
</g>
<g id="Vector_19">
<path d="M12.2578 10.1056C10.0328 9.52168 7.13324 9.67269 5.25054 10.8003C3.36784 11.9178 2.21003 13.8509 2.89465 16.1665C2.65302 14.4348 4.03232 10.1459 12.2578 10.1056Z" fill="white"/>
<path d="M12.2578 10.1056C10.0328 9.52168 7.13324 9.67269 5.25054 10.8003C3.36784 11.9178 2.21003 13.8509 2.89465 16.1665C2.65302 14.4348 4.03232 10.1459 12.2578 10.1056Z" fill="url(#paint9_linear_4966_6131)"/>
</g>
<g id="Vector_20">
<path d="M5.25951 12.6208C8.08859 11.2717 14.4918 11.8557 17.5625 19.618L14.6327 20.1416C12.5789 15.3694 10.1424 13.3155 7.34357 13.3558C5.24944 13.386 3.55803 14.3123 3.11504 16.4769C2.93382 15.0673 3.66878 13.386 5.25951 12.6208Z" fill="white"/>
<path d="M5.25951 12.6208C8.08859 11.2717 14.4918 11.8557 17.5625 19.618L14.6327 20.1416C12.5789 15.3694 10.1424 13.3155 7.34357 13.3558C5.24944 13.386 3.55803 14.3123 3.11504 16.4769C2.93382 15.0673 3.66878 13.386 5.25951 12.6208Z" fill="url(#paint10_linear_4966_6131)"/>
</g>
<g id="Group_7">
<path id="Vector_21" d="M3.11504 16.4886C3.0345 15.6329 3.25599 14.767 3.71912 14.0623C3.95068 13.7099 4.23258 13.3877 4.56482 13.136C4.89706 12.8743 5.26958 12.683 5.67229 12.542C6.46766 12.2601 7.31336 12.1393 8.15907 12.1594C8.58192 12.1695 9.00477 12.1997 9.41755 12.2803C9.83034 12.3507 10.2431 12.4514 10.6458 12.5823C11.4513 12.834 12.2164 13.2166 12.9313 13.6696C13.6461 14.1327 14.2804 14.6966 14.8643 15.3208C15.4382 15.945 15.9516 16.6296 16.3946 17.3545C16.8477 18.0794 17.2202 18.8445 17.5625 19.6298C17.2605 18.8244 16.898 18.0492 16.4752 17.3041C16.0422 16.5591 15.5489 15.8544 14.975 15.2201C13.8374 13.9314 12.3574 12.9246 10.7163 12.4011C10.3035 12.2702 9.88068 12.1695 9.45783 12.099C9.03498 12.0286 8.60205 11.9883 8.16913 11.9883C7.73621 11.9883 7.30329 12.0084 6.88044 12.0789C6.45759 12.1494 6.03474 12.25 5.63202 12.4111C5.2293 12.5622 4.83665 12.7736 4.50441 13.0555C4.17217 13.3273 3.8802 13.6596 3.64864 14.0321C3.42715 14.4046 3.26606 14.8073 3.17545 15.2302C3.07477 15.6228 3.05463 16.0658 3.11504 16.4886Z" fill="#0073FF"/>
</g>
<path id="Vector_22" opacity="0.2" d="M13.4897 10.2461C14.869 10.7294 16.1879 11.4945 17.2953 12.5516C20.6177 15.7029 20.8594 19.0354 20.8594 19.0354L14.6273 20.1429C14.0031 18.6931 13.3487 17.495 12.654 16.5385C14.5468 15.3707 14.9092 12.7933 13.4897 10.2461Z" fill="#0073FF"/>
<g id="Group_8">
<g id="Vector_23">
<path d="M26.9761 16.2059C26.6539 11.0209 27.9023 8.09117 30.4193 6.86289C32.3423 5.92657 34.2954 6.00711 35.6747 7.82941C36.0573 6.82262 34.6176 3.47 30.8119 3.5002C27.0163 3.53041 22.7173 6.30915 21.1669 10.6182C19.6265 14.9273 20.9051 18.0181 20.9051 18.0181L26.9761 16.2059Z" fill="white"/>
<path d="M26.9761 16.2059C26.6539 11.0209 27.9023 8.09117 30.4193 6.86289C32.3423 5.92657 34.2954 6.00711 35.6747 7.82941C36.0573 6.82262 34.6176 3.47 30.8119 3.5002C27.0163 3.53041 22.7173 6.30915 21.1669 10.6182C19.6265 14.9273 20.9051 18.0181 20.9051 18.0181L26.9761 16.2059Z" fill="url(#paint11_linear_4966_6131)"/>
</g>
<g id="Vector_24">
<path d="M24.5637 6.16941C26.2853 4.64916 28.9432 3.48128 31.1279 3.6323C33.3127 3.78332 35.2155 4.99147 35.6484 7.35743C35.0846 5.69622 31.9334 2.49462 24.5637 6.16941Z" fill="white"/>
<path d="M24.5637 6.16941C26.2853 4.64916 28.9432 3.48128 31.1279 3.6323C33.3127 3.78332 35.2155 4.99147 35.6484 7.35743C35.0846 5.69622 31.9334 2.49462 24.5637 6.16941Z" fill="url(#paint12_linear_4966_6131)"/>
</g>
<g id="Vector_25">
<path d="M31.9414 5.26273C28.8102 5.33321 23.3534 8.74623 24.1186 17.0523L26.9678 16.1965C26.6456 11.0115 27.894 8.08175 30.411 6.85346C32.2937 5.93728 34.2167 5.99769 35.5859 7.72937C35.1228 6.39034 33.7133 5.22246 31.9414 5.26273Z" fill="white"/>
<path d="M31.9414 5.26273C28.8102 5.33321 23.3534 8.74623 24.1186 17.0523L26.9678 16.1965C26.6456 11.0115 27.894 8.08175 30.411 6.85346C32.2937 5.93728 34.2167 5.99769 35.5859 7.72937C35.1228 6.39034 33.7133 5.22246 31.9414 5.26273Z" fill="url(#paint13_linear_4966_6131)"/>
</g>
<g id="Group_9">
<g id="Vector_26">
<path d="M35.5938 7.73926C35.4629 7.33654 35.2414 6.95396 34.9695 6.62172C34.6977 6.28948 34.3755 5.99751 34.003 5.76595C33.6305 5.54445 33.2278 5.3733 32.8049 5.28269C32.3821 5.19208 31.9391 5.17194 31.5062 5.22228C31.0733 5.26255 30.6504 5.36323 30.2376 5.49411C29.8248 5.625 29.4322 5.79615 29.0395 5.99751C28.657 6.19887 28.2844 6.42036 27.9421 6.68213C27.5898 6.93383 27.2575 7.21573 26.9555 7.51776C25.7272 8.73598 24.8613 10.2965 24.4284 11.9577C24.2069 12.7934 24.0761 13.6391 24.0257 14.4948C23.9854 15.3506 24.0156 16.2064 24.1063 17.0622C24.0559 16.2064 24.0458 15.3506 24.1163 14.5049C24.1868 13.6592 24.3278 12.8135 24.5593 11.998C24.8009 11.1825 25.113 10.3871 25.5359 9.65216C25.9588 8.91721 26.4722 8.23259 27.0864 7.64865C27.3884 7.34661 27.7106 7.07478 28.0529 6.82308C28.3952 6.57138 28.7476 6.34989 29.1301 6.14853C29.8752 5.75588 30.6907 5.47398 31.5263 5.3733C31.9492 5.32296 32.372 5.32296 32.7848 5.41357C33.1976 5.49411 33.6003 5.64513 33.9627 5.85656C34.6977 6.26934 35.2816 6.94389 35.5938 7.73926Z" fill="white"/>
<path d="M35.5938 7.73926C35.4629 7.33654 35.2414 6.95396 34.9695 6.62172C34.6977 6.28948 34.3755 5.99751 34.003 5.76595C33.6305 5.54445 33.2278 5.3733 32.8049 5.28269C32.3821 5.19208 31.9391 5.17194 31.5062 5.22228C31.0733 5.26255 30.6504 5.36323 30.2376 5.49411C29.8248 5.625 29.4322 5.79615 29.0395 5.99751C28.657 6.19887 28.2844 6.42036 27.9421 6.68213C27.5898 6.93383 27.2575 7.21573 26.9555 7.51776C25.7272 8.73598 24.8613 10.2965 24.4284 11.9577C24.2069 12.7934 24.0761 13.6391 24.0257 14.4948C23.9854 15.3506 24.0156 16.2064 24.1063 17.0622C24.0559 16.2064 24.0458 15.3506 24.1163 14.5049C24.1868 13.6592 24.3278 12.8135 24.5593 11.998C24.8009 11.1825 25.113 10.3871 25.5359 9.65216C25.9588 8.91721 26.4722 8.23259 27.0864 7.64865C27.3884 7.34661 27.7106 7.07478 28.0529 6.82308C28.3952 6.57138 28.7476 6.34989 29.1301 6.14853C29.8752 5.75588 30.6907 5.47398 31.5263 5.3733C31.9492 5.32296 32.372 5.32296 32.7848 5.41357C33.1976 5.49411 33.6003 5.64513 33.9627 5.85656C34.6977 6.26934 35.2816 6.94389 35.5938 7.73926Z" fill="url(#paint14_linear_4966_6131)"/>
</g>
</g>
<g id="Group_10">
<path id="Vector_27" d="M36.4336 8.10137C36.6048 8.47389 36.4336 8.91688 36.051 9.08803C35.6684 9.25918 35.2355 9.08803 35.0644 8.70545C34.8932 8.32287 35.0644 7.88995 35.447 7.71879C35.8195 7.55771 36.2625 7.72886 36.4336 8.10137Z" fill="#0073FF"/>
<g id="Vector_28">
<path d="M36.3557 8.01084C36.4865 8.31288 36.3557 8.66525 36.0536 8.79614C35.7516 8.92702 35.3992 8.79614 35.2683 8.4941C35.1374 8.19206 35.2683 7.83968 35.5704 7.7088C35.8724 7.57792 36.2248 7.7088 36.3557 8.01084Z" fill="white"/>
<path d="M36.3557 8.01084C36.4865 8.31288 36.3557 8.66525 36.0536 8.79614C35.7516 8.92702 35.3992 8.79614 35.2683 8.4941C35.1374 8.19206 35.2683 7.83968 35.5704 7.7088C35.8724 7.57792 36.2248 7.7088 36.3557 8.01084Z" fill="url(#paint15_linear_4966_6131)"/>
</g>
<path id="Vector_29" d="M36.0623 7.80923C36.1026 7.88978 36.0623 7.99045 35.9818 8.02066C35.9012 8.06093 35.8006 8.02066 35.7704 7.94012C35.7301 7.85957 35.7704 7.75889 35.8509 7.72869C35.9314 7.68842 36.0221 7.72869 36.0623 7.80923Z" fill="white"/>
<path id="Vector_30" d="M36.1013 8.06517C36.086 8.04901 36.0867 8.02352 36.1029 8.00824C36.119 7.99295 36.1445 7.99365 36.1598 8.00981C36.1751 8.02597 36.1744 8.05146 36.1582 8.06674C36.1421 8.08203 36.1166 8.08132 36.1013 8.06517Z" fill="white"/>
</g>
</g>
<path id="Vector_31" opacity="0.44" d="M21.167 10.6178C21.6503 9.27879 22.3953 8.09078 23.3014 7.08398C23.8955 8.82573 25.5466 11.0407 27.1172 11.977C26.9158 13.1751 26.8655 14.5745 26.9662 16.2055L20.9053 18.0278C20.9153 18.0177 19.6267 14.9269 21.167 10.6178Z" fill="#0073FF"/>
<g id="Vector_32">
<path d="M25.7109 17.2331C24.6941 12.2193 20.4958 3.18836 14.3745 4.85963C8.71629 6.40002 11.344 14.4242 13.8308 15.7229C12.7737 13.7496 13.1663 10.8903 13.9617 9.79291C16.2974 11.9273 16.9216 18.0184 16.5995 20.183C20.2843 20.6059 25.7109 17.2331 25.7109 17.2331Z" fill="white"/>
<path d="M25.7109 17.2331C24.6941 12.2193 20.4958 3.18836 14.3745 4.85963C8.71629 6.40002 11.344 14.4242 13.8308 15.7229C12.7737 13.7496 13.1663 10.8903 13.9617 9.79291C16.2974 11.9273 16.9216 18.0184 16.5995 20.183C20.2843 20.6059 25.7109 17.2331 25.7109 17.2331Z" fill="url(#paint16_linear_4966_6131)"/>
</g>
<g id="Vector_33">
<path d="M14.3104 8.76591C14.693 8.35313 15.7501 8.15177 15.9515 8.23231C16.6462 8.34306 17.5422 8.57462 19.0927 10.4372C20.5727 12.2192 21.6298 14.9476 22.4453 18.854C20.7942 19.4983 18.2168 20.3642 16.5858 20.1829C16.908 18.0284 16.2837 11.9373 13.948 9.79284C13.1627 10.9003 12.76 13.7596 13.8171 15.7228C12.6996 14.0415 12.4982 10.3264 14.3104 8.76591Z" fill="white"/>
<path d="M14.3104 8.76591C14.693 8.35313 15.7501 8.15177 15.9515 8.23231C16.6462 8.34306 17.5422 8.57462 19.0927 10.4372C20.5727 12.2192 21.6298 14.9476 22.4453 18.854C20.7942 19.4983 18.2168 20.3642 16.5858 20.1829C16.908 18.0284 16.2837 11.9373 13.948 9.79284C13.1627 10.9003 12.76 13.7596 13.8171 15.7228C12.6996 14.0415 12.4982 10.3264 14.3104 8.76591Z" fill="url(#paint17_linear_4966_6131)"/>
</g>
<g id="Group_11">
<path id="Vector_34" d="M21.9306 18.4308C22.0011 17.5246 21.9004 16.6085 21.7091 15.7124C21.5077 14.8164 21.2158 13.9505 20.8433 13.1149C20.652 12.7021 20.4506 12.2893 20.2191 11.8866C19.9875 11.494 19.7459 11.1013 19.474 10.7288C19.2022 10.3563 18.9102 10.0039 18.5881 9.67167C18.2659 9.33943 17.9236 9.03739 17.5309 8.77562C17.1483 8.52393 16.7154 8.3125 16.2624 8.21182C15.7992 8.11114 15.3059 8.14135 14.873 8.3125C14.6515 8.40311 14.4501 8.52393 14.2689 8.67494C14.0877 8.82596 13.9266 8.99712 13.7857 9.18841C13.5038 9.56092 13.3125 9.99384 13.1715 10.4268C13.0306 10.8698 12.95 11.3228 12.9097 11.7759C12.8695 12.2289 12.8695 12.692 12.9198 13.1451C12.9702 13.5982 13.0608 14.0512 13.2017 14.4841C13.3427 14.9171 13.544 15.3399 13.8058 15.7024C13.5541 15.3198 13.3729 14.907 13.242 14.464C13.1212 14.0311 13.0406 13.578 13.0104 13.125C12.9802 12.6719 12.9802 12.2189 13.0306 11.7759C13.0809 11.3228 13.1614 10.8798 13.3125 10.457C13.3527 10.3462 13.3829 10.2455 13.4333 10.1449C13.4736 10.0442 13.5239 9.9435 13.5742 9.84282C13.6246 9.74214 13.685 9.65153 13.7353 9.55085C13.7957 9.46024 13.8561 9.35956 13.9266 9.27902C14.0575 9.0978 14.2186 8.94678 14.3797 8.80583C14.5508 8.66488 14.7421 8.5642 14.9435 8.47359C15.3563 8.3125 15.8093 8.29236 16.2322 8.38297C16.6651 8.47359 17.0678 8.68501 17.4403 8.92664C17.8128 9.16827 18.1551 9.47031 18.4672 9.79248C18.7793 10.1147 19.0713 10.457 19.3431 10.8194C19.6049 11.1819 19.8566 11.5644 20.0882 11.9571C20.3097 12.3497 20.5211 12.7525 20.7124 13.1552C20.9037 13.568 21.0748 13.9807 21.2258 14.4137C21.3769 14.8466 21.5077 15.2795 21.6185 15.7124C21.7192 16.1554 21.8199 16.5984 21.8702 17.0515C21.9205 17.5246 21.9507 17.9777 21.9306 18.4308Z" fill="#0073FF"/>
</g>
<path id="Vector_35" d="M27.6406 16.5777C27.6406 16.5777 26.9963 13.7486 27.2782 12.2988C26.1707 13.8594 25.7277 15.4602 25.7277 15.4602L24.6202 13.4063L23.6739 16.477L22.2039 14.2822L21.2072 17.2724L18.9117 15.0876L18.2674 18.0979L16.0021 15.7823L15.7403 18.6718L14.0892 16.3965L14.0691 17.9167L12.1964 16.7488L14.1899 20.6955C14.1899 20.7055 23.7745 21.954 27.6406 16.5777Z" fill="#0073FF"/>
<g id="Vector_36">
<path d="M15.9732 4.80901C14.2012 4.75867 12.7716 5.51377 11.9863 6.62124C11.201 7.72871 10.1539 11.7659 13.3354 15.2394C12.2279 13.0647 11.0399 10.1349 13.0937 7.59783C15.0167 5.2218 17.9163 5.59431 19.8594 6.50042C18.4297 5.12112 16.6477 4.81908 15.9732 4.80901Z" fill="white"/>
<path d="M15.9732 4.80901C14.2012 4.75867 12.7716 5.51377 11.9863 6.62124C11.201 7.72871 10.1539 11.7659 13.3354 15.2394C12.2279 13.0647 11.0399 10.1349 13.0937 7.59783C15.0167 5.2218 17.9163 5.59431 19.8594 6.50042C18.4297 5.12112 16.6477 4.81908 15.9732 4.80901Z" fill="url(#paint18_linear_4966_6131)"/>
</g>
<g id="Group_12">
<path id="Vector_37" d="M13.3215 16.0753C13.3417 16.4881 13.694 16.8002 14.1068 16.78C14.5196 16.7599 14.8317 16.4075 14.8116 15.9947C14.7914 15.582 14.4391 15.2698 14.0263 15.29C13.6135 15.3101 13.3014 15.6625 13.3215 16.0753Z" fill="#0073FF"/>
<g id="Vector_38">
<path d="M13.3421 15.9652C13.3622 16.2974 13.6341 16.5491 13.9663 16.529C14.2986 16.5088 14.5503 16.237 14.5301 15.9048C14.51 15.5725 14.2382 15.3208 13.9059 15.341C13.5837 15.3611 13.332 15.6329 13.3421 15.9652Z" fill="white"/>
<path d="M13.3421 15.9652C13.3622 16.2974 13.6341 16.5491 13.9663 16.529C14.2986 16.5088 14.5503 16.237 14.5301 15.9048C14.51 15.5725 14.2382 15.3208 13.9059 15.341C13.5837 15.3611 13.332 15.6329 13.3421 15.9652Z" fill="url(#paint19_linear_4966_6131)"/>
</g>
<path id="Vector_39" d="M13.5128 15.6526C13.5128 15.7432 13.5933 15.8137 13.684 15.8036C13.7746 15.7935 13.845 15.7231 13.835 15.6324C13.835 15.5418 13.7544 15.4714 13.6638 15.4814C13.5833 15.4814 13.5128 15.562 13.5128 15.6526Z" fill="white"/>
<path id="Vector_40" d="M13.5781 15.8837C13.5781 15.8636 13.558 15.8535 13.5379 15.8535C13.5177 15.8535 13.5076 15.8737 13.5076 15.8938C13.5076 15.9139 13.5278 15.924 13.5479 15.924C13.5681 15.924 13.5781 15.9039 13.5781 15.8837Z" fill="white"/>
</g>
<g id="Group_13">
<path id="Vector_41" d="M2.7935 17.6958C2.48754 17.4207 2.46252 16.9497 2.73762 16.6437C3.01273 16.3377 3.48378 16.3127 3.78975 16.5878C4.09572 16.8629 4.12073 17.334 3.84563 17.6399C3.57052 17.9459 3.09947 17.9709 2.7935 17.6958Z" fill="#0073FF"/>
<g id="Vector_42">
<path d="M2.57648 17.0726C2.59662 17.4048 2.86845 17.6565 3.20069 17.6364C3.53293 17.6163 3.78463 17.3444 3.7645 17.0122C3.74436 16.68 3.47253 16.4283 3.14028 16.4484C2.80804 16.4585 2.55634 16.7404 2.57648 17.0726Z" fill="white"/>
<path d="M2.57648 17.0726C2.59662 17.4048 2.86845 17.6565 3.20069 17.6364C3.53293 17.6163 3.78463 17.3444 3.7645 17.0122C3.74436 16.68 3.47253 16.4283 3.14028 16.4484C2.80804 16.4585 2.55634 16.7404 2.57648 17.0726Z" fill="url(#paint20_linear_4966_6131)"/>
</g>
<path id="Vector_43" d="M2.73937 16.76C2.73937 16.8506 2.81991 16.9211 2.91052 16.911C3.00113 16.911 3.07161 16.8305 3.06154 16.7399C3.06154 16.6493 2.981 16.5788 2.89039 16.5888C2.80984 16.5888 2.73937 16.6694 2.73937 16.76Z" fill="white"/>
<path id="Vector_44" d="M2.8125 16.9911C2.8125 16.971 2.79236 16.9609 2.77223 16.9609C2.75209 16.9609 2.74202 16.9811 2.74202 17.0012C2.74202 17.0213 2.76216 17.0314 2.78229 17.0314C2.79236 17.0314 2.8125 17.0113 2.8125 16.9911Z" fill="white"/>
</g>
<path id="Vector_45" d="M14.3396 18.8634L14.4906 17.5646L16.0512 19.5983L16.4942 17.1418L18.5883 19.4071L19.1622 16.0544L21.4274 18.6016L22.3436 15.4302L23.8337 17.5646L24.6894 14.3026L25.8372 16.3766L27.2165 13.2656C27.2165 13.4066 27.2266 13.5475 27.2266 13.6985L25.8573 16.7995L24.7499 14.806L23.9142 18.0076L22.4242 15.8531L21.5281 18.9741L19.293 16.4572L18.7192 19.7997L16.625 17.5344L16.172 20.0413L14.6316 18.0378L14.5007 19.1755L12.9301 18.1687L12.759 17.8365L14.3396 18.8634Z" fill="white"/>
</g>
</g>
</g>
<defs>
<linearGradient id="paint0_linear_4966_6131" x1="20.9952" y1="26.977" x2="19.0169" y2="22.068" gradientUnits="userSpaceOnUse">
<stop stop-color="#0073FF"/>
<stop offset="1" stop-color="#00C2FF"/>
</linearGradient>
<linearGradient id="paint1_linear_4966_6131" x1="26.6293" y1="27.4111" x2="24.77" y2="23.0381" gradientUnits="userSpaceOnUse">
<stop stop-color="#0073FF"/>
<stop offset="1" stop-color="#00C2FF"/>
</linearGradient>
<linearGradient id="paint2_linear_4966_6131" x1="19.3467" y1="37.3452" x2="3.30187" y2="31.1389" gradientUnits="userSpaceOnUse">
<stop offset="0.0989583" stop-color="#FFC62F"/>
<stop offset="0.3424" stop-color="#FFEAA5"/>
<stop offset="0.482125" stop-color="#EBD084"/>
<stop offset="1" stop-color="#A37207"/>
</linearGradient>
<linearGradient id="paint3_linear_4966_6131" x1="28.011" y1="37.6363" x2="11.2429" y2="24.5312" gradientUnits="userSpaceOnUse">
<stop offset="0.0989583" stop-color="#FFC62F"/>
<stop offset="0.3424" stop-color="#FFEAA5"/>
<stop offset="0.482125" stop-color="#EBD084"/>
<stop offset="1" stop-color="#A37207"/>
</linearGradient>
<linearGradient id="paint4_linear_4966_6131" x1="24.6076" y1="34.0234" x2="21.9462" y2="30.3768" gradientUnits="userSpaceOnUse">
<stop stop-color="#0073FF"/>
<stop offset="1" stop-color="#00C2FF"/>
</linearGradient>
<linearGradient id="paint5_linear_4966_6131" x1="16.3482" y1="31.2221" x2="13.3185" y2="28.6482" gradientUnits="userSpaceOnUse">
<stop stop-color="#0073FF"/>
<stop offset="1" stop-color="#00C2FF"/>
</linearGradient>
<linearGradient id="paint6_linear_4966_6131" x1="15.4042" y1="30.588" x2="13.428" y2="28.4404" gradientUnits="userSpaceOnUse">
<stop stop-color="#0073FF"/>
<stop offset="1" stop-color="#00C2FF"/>
</linearGradient>
<linearGradient id="paint7_linear_4966_6131" x1="12.1291" y1="26.8343" x2="11.4898" y2="26.4441" gradientUnits="userSpaceOnUse">
<stop stop-color="#0073FF"/>
<stop offset="1" stop-color="#00C2FF"/>
</linearGradient>
<linearGradient id="paint8_linear_4966_6131" x1="18.4597" y1="20.1529" x2="12.9311" y2="7.13613" gradientUnits="userSpaceOnUse">
<stop stop-color="#0073FF"/>
<stop offset="1" stop-color="#00C2FF"/>
</linearGradient>
<linearGradient id="paint9_linear_4966_6131" x1="10.9974" y1="16.1665" x2="7.30673" y2="8.66453" gradientUnits="userSpaceOnUse">
<stop stop-color="#0073FF"/>
<stop offset="1" stop-color="#00C2FF"/>
</linearGradient>
<linearGradient id="paint10_linear_4966_6131" x1="15.6545" y1="20.1416" x2="11.5102" y2="10.0596" gradientUnits="userSpaceOnUse">
<stop stop-color="#0073FF"/>
<stop offset="1" stop-color="#00C2FF"/>
</linearGradient>
<linearGradient id="paint11_linear_4966_6131" x1="33.714" y1="18.0181" x2="23.7922" y2="3.77795" gradientUnits="userSpaceOnUse">
<stop stop-color="#0073FF"/>
<stop offset="1" stop-color="#00C2FF"/>
</linearGradient>
<linearGradient id="paint12_linear_4966_6131" x1="34.1873" y1="7.35743" x2="32.9144" y2="2.22644" gradientUnits="userSpaceOnUse">
<stop stop-color="#0073FF"/>
<stop offset="1" stop-color="#00C2FF"/>
</linearGradient>
<linearGradient id="paint13_linear_4966_6131" x1="34.0647" y1="17.0523" x2="25.8141" y2="6.07397" gradientUnits="userSpaceOnUse">
<stop stop-color="#0073FF"/>
<stop offset="1" stop-color="#00C2FF"/>
</linearGradient>
<linearGradient id="paint14_linear_4966_6131" x1="34.0666" y1="17.0621" x2="25.7568" y2="6.03291" gradientUnits="userSpaceOnUse">
<stop stop-color="#0073FF"/>
<stop offset="1" stop-color="#00C2FF"/>
</linearGradient>
<linearGradient id="paint15_linear_4966_6131" x1="36.2496" y1="8.84673" x2="35.423" y2="7.72303" gradientUnits="userSpaceOnUse">
<stop stop-color="#0073FF"/>
<stop offset="1" stop-color="#00C2FF"/>
</linearGradient>
<linearGradient id="paint16_linear_4966_6131" x1="23.7718" y1="20.2197" x2="12.7811" y2="6.09672" gradientUnits="userSpaceOnUse">
<stop stop-color="#0073FF"/>
<stop offset="1" stop-color="#00C2FF"/>
</linearGradient>
<linearGradient id="paint17_linear_4966_6131" x1="21.1953" y1="20.2074" x2="12.4815" y2="10.84" gradientUnits="userSpaceOnUse">
<stop stop-color="#0073FF"/>
<stop offset="1" stop-color="#00C2FF"/>
</linearGradient>
<linearGradient id="paint18_linear_4966_6131" x1="18.7141" y1="15.2394" x2="11.172" y2="6.70045" gradientUnits="userSpaceOnUse">
<stop stop-color="#0073FF"/>
<stop offset="1" stop-color="#00C2FF"/>
</linearGradient>
<linearGradient id="paint19_linear_4966_6131" x1="14.3745" y1="16.5301" x2="13.5465" y2="15.4053" gradientUnits="userSpaceOnUse">
<stop stop-color="#0073FF"/>
<stop offset="1" stop-color="#00C2FF"/>
</linearGradient>
<linearGradient id="paint20_linear_4966_6131" x1="3.60873" y1="17.6375" x2="2.78095" y2="16.5122" gradientUnits="userSpaceOnUse">
<stop stop-color="#0073FF"/>
<stop offset="1" stop-color="#00C2FF"/>
</linearGradient>
<clipPath id="clip0_4966_6131">
<rect width="40" height="40" fill="white" transform="matrix(-1 0 0 1 40 0)"/>
</clipPath>
</defs>
</svg>
