<svg width="40" height="40" viewBox="0 0 40 40" fill="none" xmlns="http://www.w3.org/2000/svg">
<g clip-path="url(#clip0_4950_6202)">
<rect width="40" height="40" rx="6" fill="white"/>
<rect width="40" height="40" rx="6" fill="url(#paint0_linear_4950_6202)"/>
<g opacity="0.2">
<path d="M-1.16791 34.7716L0.0449292 34.5583L-0.871253 33.869L-0.589387 32.6895L-1.63346 33.3983L-2.67042 32.886L-2.40264 34.0112L-3.32667 34.8706L-2.11398 34.8593L-1.64671 35.9062L-1.16791 34.7716Z" fill="white"/>
<path d="M1.94146 38.6799L3.1543 38.4665L2.23812 37.7772L2.51999 36.5977L1.47591 37.3065L0.438957 36.7942L0.706734 37.9194L-0.2173 38.7788L0.995393 38.7675L1.46266 39.8144L1.94146 38.6799Z" fill="white"/>
<path d="M5.05865 42.592L6.27149 42.3786L5.35531 41.6893L5.63718 40.5098L4.5931 41.2186L3.55614 40.7063L3.82392 41.8315L2.89989 42.6909L4.11258 42.6796L4.57985 43.7265L5.05865 42.592Z" fill="white"/>
<path d="M0.410215 27.1213L1.62305 26.9079L0.706872 26.2186L0.988738 25.0391L-0.0553384 25.7479L-1.09229 25.2356L-0.824516 26.3608L-1.74855 27.2202L-0.535857 27.2089L-0.0685899 28.2558L0.410215 27.1213Z" fill="white"/>
<path d="M3.51959 31.0314L4.73243 30.8181L3.81625 30.1288L4.09811 28.9493L3.05404 29.658L2.01708 29.1458L2.28486 30.2709L1.36083 31.1304L2.57352 31.119L3.04079 32.166L3.51959 31.0314Z" fill="white"/>
<path d="M6.63678 34.9416L7.84962 34.7282L6.93343 34.039L7.2153 32.8594L6.17122 33.5682L5.13427 33.0559L5.40205 34.1811L4.47801 35.0405L5.69071 35.0292L6.15797 36.0761L6.63678 34.9416Z" fill="white"/>
<path d="M9.75396 38.8537L10.9668 38.6403L10.0506 37.9511L10.3325 36.7715L9.28841 37.4803L8.25146 36.968L8.51923 38.0932L7.5952 38.9526L8.80789 38.9413L9.27516 39.9882L9.75396 38.8537Z" fill="white"/>
<path d="M12.8712 42.7619L14.084 42.5485L13.1678 41.8593L13.4497 40.6797L12.4056 41.3885L11.3686 40.8762L11.6364 42.0014L10.7124 42.8608L11.9251 42.8495L12.3923 43.8965L12.8712 42.7619Z" fill="white"/>
<path d="M-1.13666 15.5607L0.0761792 15.3474L-0.840003 14.6581L-0.558137 13.4786L-1.60221 14.1873L-2.63917 13.6751L-2.37139 14.8002L-3.29542 15.6597L-2.08273 15.6483L-1.61546 16.6953L-1.13666 15.5607Z" fill="white"/>
<path d="M1.98053 19.4709L3.19337 19.2575L2.27718 18.5682L2.55905 17.3887L1.51497 18.0975L0.478019 17.5852L0.745796 18.7104L-0.178237 19.5698L1.03446 19.5585L1.50172 20.6054L1.98053 19.4709Z" fill="white"/>
<path d="M5.09771 23.381L6.31055 23.1677L5.39437 22.4784L5.67624 21.2989L4.63216 22.0077L3.59521 21.4954L3.86298 22.6205L2.93895 23.48L4.15164 23.4686L4.61891 24.5156L5.09771 23.381Z" fill="white"/>
<path d="M8.2149 27.2931L9.42774 27.0798L8.51156 26.3905L8.79343 25.211L7.74935 25.9198L6.71239 25.4075L6.98017 26.5327L6.05614 27.3921L7.26883 27.3807L7.7361 28.4277L8.2149 27.2931Z" fill="white"/>
<path d="M11.3321 31.2033L12.5449 30.9899L11.6287 30.3007L11.9106 29.1211L10.8665 29.8299L9.82958 29.3176L10.0974 30.4428L9.17333 31.3022L10.386 31.2909L10.8533 32.3379L11.3321 31.2033Z" fill="white"/>
<path d="M14.4415 35.1134L15.6543 34.9001L14.7381 34.2108L15.02 33.0313L13.9759 33.7401L12.939 33.2278L13.2067 34.353L12.2827 35.2124L13.4954 35.2011L13.9627 36.248L14.4415 35.1134Z" fill="white"/>
<path d="M17.5587 39.0236L18.7715 38.8102L17.8553 38.121L18.1372 36.9414L17.0931 37.6502L16.0561 37.138L16.3239 38.2631L15.3999 39.1226L16.6126 39.1112L17.0798 40.1582L17.5587 39.0236Z" fill="white"/>
<path d="M20.6758 42.9338L21.8887 42.7204L20.9725 42.0311L21.2544 40.8516L20.2103 41.5604L19.1733 41.0481L19.4411 42.1733L18.5171 43.0327L19.7298 43.0214L20.197 44.0683L20.6758 42.9338Z" fill="white"/>
<path d="M0.441465 7.91227L1.6543 7.69891L0.738122 7.00965L1.01999 5.83012L-0.0240884 6.5389L-1.06104 6.02663L-0.793266 7.15179L-1.7173 8.01123L-0.504607 7.99988L-0.0373399 9.04684L0.441465 7.91227Z" fill="white"/>
<path d="M3.55865 11.8224L4.77149 11.6091L3.85531 10.9198L4.13718 9.74027L3.0931 10.4491L2.05614 9.93679L2.32392 11.062L1.39989 11.9214L2.61258 11.91L3.07985 12.957L3.55865 11.8224Z" fill="white"/>
<path d="M6.66803 15.7326L7.88087 15.5192L6.96468 14.83L7.24655 13.6504L6.20247 14.3592L5.16552 13.8469L5.4333 14.9721L4.50926 15.8315L5.72196 15.8202L6.18922 16.8672L6.66803 15.7326Z" fill="white"/>
<path d="M9.79303 19.6427L11.0059 19.4294L10.0897 18.7401L10.3716 17.5606L9.32747 18.2694L8.29052 17.7571L8.5583 18.8823L7.63426 19.7417L8.84696 19.7303L9.31422 20.7773L9.79303 19.6427Z" fill="white"/>
<path d="M12.9102 23.5529L14.1231 23.3395L13.2069 22.6503L13.4887 21.4707L12.4447 22.1795L11.4077 21.6673L11.6755 22.7924L10.7515 23.6519L11.9641 23.6405L12.4314 24.6875L12.9102 23.5529Z" fill="white"/>
<path d="M16.0196 27.4631L17.2324 27.2497L16.3162 26.5604L16.5981 25.3809L15.554 26.0897L14.5171 25.5774L14.7849 26.7026L13.8608 27.562L15.0735 27.5507L15.5408 28.5976L16.0196 27.4631Z" fill="white"/>
<path d="M19.1368 31.3732L20.3496 31.1599L19.4334 30.4706L19.7153 29.2911L18.6712 29.9998L17.6343 29.4876L17.902 30.6127L16.978 31.4722L18.1907 31.4608L18.658 32.5078L19.1368 31.3732Z" fill="white"/>
<path d="M22.254 35.2853L23.4668 35.072L22.5506 34.3827L22.8325 33.2032L21.7884 33.9119L20.7515 33.3997L21.0192 34.5248L20.0952 35.3843L21.3079 35.3729L21.7752 36.4199L22.254 35.2853Z" fill="white"/>
<path d="M25.3712 39.1955L26.584 38.9821L25.6678 38.2929L25.9497 37.1133L24.9056 37.8221L23.8686 37.3098L24.1364 38.435L23.2124 39.2944L24.4251 39.2831L24.8923 40.33L25.3712 39.1955Z" fill="white"/>
<path d="M5.13678 4.17204L6.34962 3.95868L5.43343 3.26942L5.7153 2.08988L4.67122 2.79867L3.63427 2.2864L3.90205 3.41156L2.97801 4.271L4.19071 4.25964L4.65797 5.30661L5.13678 4.17204Z" fill="white"/>
<path d="M8.25396 8.08219L9.4668 7.86884L8.55062 7.17958L8.83249 6.00004L7.78841 6.70882L6.75146 6.19655L7.01923 7.32172L6.0952 8.18115L7.30789 8.1698L7.77516 9.21676L8.25396 8.08219Z" fill="white"/>
<path d="M11.3712 11.9943L12.584 11.7809L11.6678 11.0917L11.9497 9.91215L10.9056 10.6209L9.86864 10.1087L10.1364 11.2338L9.21239 12.0933L10.4251 12.0819L10.8923 13.1289L11.3712 11.9943Z" fill="white"/>
<path d="M14.4805 15.9045L15.6934 15.6911L14.7772 15.0018L15.0591 13.8223L14.015 14.5311L12.978 14.0188L13.2458 15.144L12.3218 16.0034L13.5345 15.9921L14.0017 17.039L14.4805 15.9045Z" fill="white"/>
<path d="M17.5977 19.8146L18.8106 19.6013L17.8944 18.912L18.1762 17.7325L17.1322 18.4412L16.0952 17.929L16.363 19.0541L15.439 19.9136L16.6516 19.9022L17.1189 20.9492L17.5977 19.8146Z" fill="white"/>
<path d="M20.7149 23.7248L21.9277 23.5114L21.0116 22.8222L21.2934 21.6426L20.2493 22.3514L19.2124 21.8391L19.4802 22.9643L18.5561 23.8237L19.7688 23.8124L20.2361 24.8593L20.7149 23.7248Z" fill="white"/>
<path d="M23.8321 27.6349L25.0449 27.4216L24.1287 26.7323L24.4106 25.5528L23.3665 26.2616L22.3296 25.7493L22.5974 26.8745L21.6733 27.7339L22.886 27.7225L23.3533 28.7695L23.8321 27.6349Z" fill="white"/>
<path d="M26.9415 31.5451L28.1543 31.3317L27.2381 30.6425L27.52 29.4629L26.4759 30.1717L25.439 29.6594L25.7067 30.7846L24.7827 31.644L25.9954 31.6327L26.4627 32.6797L26.9415 31.5451Z" fill="white"/>
<path d="M30.0587 35.4552L31.2715 35.2419L30.3553 34.5526L30.6372 33.3731L29.5931 34.0819L28.5561 33.5696L28.8239 34.6948L27.8999 35.5542L29.1126 35.5428L29.5798 36.5898L30.0587 35.4552Z" fill="white"/>
<path d="M33.1758 39.3674L34.3887 39.154L33.4725 38.4647L33.7544 37.2852L32.7103 37.994L31.6733 37.4817L31.9411 38.6069L31.0171 39.4663L32.2298 39.455L32.697 40.5019L33.1758 39.3674Z" fill="white"/>
<path d="M9.82428 0.433757L11.0371 0.220398L10.1209 -0.468862L10.4028 -1.6484L9.35872 -0.939614L8.32177 -1.45188L8.58955 -0.326722L7.66551 0.532715L8.87821 0.521364L9.34547 1.56833L9.82428 0.433757Z" fill="white"/>
<path d="M12.9415 4.34391L14.1543 4.13055L13.2381 3.44129L13.52 2.26176L12.4759 2.97054L11.439 2.45827L11.7067 3.58343L10.7827 4.44287L11.9954 4.43152L12.4627 5.47848L12.9415 4.34391Z" fill="white"/>
<path d="M16.0587 8.25407L17.2715 8.04071L16.3553 7.35145L16.6372 6.17191L15.5931 6.8807L14.5561 6.36843L14.8239 7.49359L13.8999 8.35303L15.1126 8.34168L15.5798 9.38864L16.0587 8.25407Z" fill="white"/>
<path d="M19.1758 12.1642L20.3887 11.9509L19.4725 11.2616L19.7544 10.0821L18.7103 10.7909L17.6733 10.2786L17.9411 11.4037L17.0171 12.2632L18.2298 12.2518L18.697 13.2988L19.1758 12.1642Z" fill="white"/>
<path d="M22.293 16.0763L23.5059 15.863L22.5897 15.1737L22.8716 13.9942L21.8275 14.703L20.7905 14.1907L21.0583 15.3159L20.1343 16.1753L21.347 16.1639L21.8142 17.2109L22.293 16.0763Z" fill="white"/>
<path d="M25.4102 19.9865L26.6231 19.7731L25.7069 19.0839L25.9887 17.9043L24.9447 18.6131L23.9077 18.1008L24.1755 19.226L23.2515 20.0854L24.4641 20.0741L24.9314 21.1211L25.4102 19.9865Z" fill="white"/>
<path d="M28.5196 23.8947L29.7324 23.6813L28.8162 22.9921L29.0981 21.8125L28.054 22.5213L27.0171 22.0091L27.2849 23.1342L26.3608 23.9937L27.5735 23.9823L28.0408 25.0293L28.5196 23.8947Z" fill="white"/>
<path d="M31.6368 27.8068L32.8496 27.5934L31.9334 26.9042L32.2153 25.7246L31.1712 26.4334L30.1343 25.9212L30.402 27.0463L29.478 27.9058L30.6907 27.8944L31.158 28.9414L31.6368 27.8068Z" fill="white"/>
<path d="M34.754 31.717L35.9668 31.5036L35.0506 30.8143L35.3325 29.6348L34.2884 30.3436L33.2515 29.8313L33.5192 30.9565L32.5952 31.8159L33.8079 31.8046L34.2752 32.8515L34.754 31.717Z" fill="white"/>
<path d="M37.8712 35.6271L39.084 35.4138L38.1678 34.7245L38.4497 33.545L37.4056 34.2537L36.3686 33.7415L36.6364 34.8666L35.7124 35.7261L36.9251 35.7147L37.3923 36.7617L37.8712 35.6271Z" fill="white"/>
<path d="M17.6368 0.603679L18.8496 0.39032L17.9334 -0.29894L18.2153 -1.47848L17.1712 -0.769693L16.1343 -1.28196L16.402 -0.1568L15.478 0.702637L16.6907 0.691285L17.158 1.73825L17.6368 0.603679Z" fill="white"/>
<path d="M20.754 4.51579L21.9668 4.30243L21.0506 3.61317L21.3325 2.43363L20.2884 3.14242L19.2515 2.63015L19.5192 3.75531L18.5952 4.61475L19.8079 4.60339L20.2752 5.65036L20.754 4.51579Z" fill="white"/>
<path d="M23.8712 8.42594L25.084 8.21259L24.1678 7.52333L24.4497 6.34379L23.4056 7.05257L22.3686 6.5403L22.6364 7.66547L21.7124 8.5249L22.9251 8.51355L23.3923 9.56051L23.8712 8.42594Z" fill="white"/>
<path d="M26.9805 12.3361L28.1934 12.1227L27.2772 11.4335L27.5591 10.2539L26.515 10.9627L25.478 10.4505L25.7458 11.5756L24.8218 12.4351L26.0345 12.4237L26.5017 13.4707L26.9805 12.3361Z" fill="white"/>
<path d="M30.0977 16.2463L31.3106 16.0329L30.3944 15.3436L30.6762 14.1641L29.6322 14.8729L28.5952 14.3606L28.863 15.4858L27.939 16.3452L29.1516 16.3339L29.6189 17.3808L30.0977 16.2463Z" fill="white"/>
<path d="M33.2149 20.1584L34.4277 19.945L33.5116 19.2557L33.7934 18.0762L32.7493 18.785L31.7124 18.2727L31.9802 19.3979L31.0561 20.2573L32.2688 20.246L32.7361 21.2929L33.2149 20.1584Z" fill="white"/>
<path d="M36.3321 24.0685L37.5449 23.8552L36.6287 23.1659L36.9106 21.9864L35.8665 22.6952L34.8296 22.1829L35.0974 23.308L34.1733 24.1675L35.386 24.1561L35.8533 25.2031L36.3321 24.0685Z" fill="white"/>
<path d="M39.4415 27.9767L40.6543 27.7634L39.7381 27.0741L40.02 25.8946L38.9759 26.6034L37.939 26.0911L38.2067 27.2162L37.2827 28.0757L38.4954 28.0643L38.9627 29.1113L39.4415 27.9767Z" fill="white"/>
<path d="M42.5587 31.8888L43.7715 31.6755L42.8553 30.9862L43.1372 29.8067L42.0931 30.5155L41.0561 30.0032L41.3239 31.1284L40.3999 31.9878L41.6126 31.9764L42.0798 33.0234L42.5587 31.8888Z" fill="white"/>
<path d="M25.4493 0.777507L26.6621 0.564148L25.7459 -0.125112L26.0278 -1.30465L24.9837 -0.595864L23.9468 -1.10813L24.2145 0.0170284L23.2905 0.876465L24.5032 0.865114L24.9705 1.91208L25.4493 0.777507Z" fill="white"/>
<path d="M28.5587 4.68571L29.7715 4.47235L28.8553 3.78309L29.1372 2.60356L28.0931 3.31234L27.0561 2.80007L27.3239 3.92523L26.3999 4.78467L27.6126 4.77332L28.0798 5.82028L28.5587 4.68571Z" fill="white"/>
<path d="M31.6758 8.59782L32.8887 8.38446L31.9725 7.6952L32.2544 6.51566L31.2103 7.22445L30.1733 6.71218L30.4411 7.83734L29.5171 8.69678L30.7298 8.68543L31.197 9.73239L31.6758 8.59782Z" fill="white"/>
<path d="M34.793 12.508L36.0059 12.2946L35.0897 11.6054L35.3716 10.4258L34.3275 11.1346L33.2905 10.6223L33.5583 11.7475L32.6343 12.6069L33.847 12.5956L34.3142 13.6425L34.793 12.508Z" fill="white"/>
<path d="M37.9102 16.4181L39.1231 16.2048L38.2069 15.5155L38.4887 14.336L37.4447 15.0448L36.4077 14.5325L36.6755 15.6577L35.7515 16.5171L36.9641 16.5057L37.4314 17.5527L37.9102 16.4181Z" fill="white"/>
<path d="M41.0196 20.3283L42.2324 20.1149L41.3162 19.4257L41.5981 18.2461L40.554 18.9549L39.5171 18.4426L39.7849 19.5678L38.8608 20.4272L40.0735 20.4159L40.5408 21.4629L41.0196 20.3283Z" fill="white"/>
<path d="M33.254 0.947429L34.4668 0.73407L33.5506 0.0448099L33.8325 -1.13473L32.7884 -0.425943L31.7515 -0.938213L32.0192 0.18695L31.0952 1.04639L32.3079 1.03504L32.7752 2.082L33.254 0.947429Z" fill="white"/>
<path d="M36.3712 4.85759L37.584 4.64423L36.6678 3.95497L36.9497 2.77543L35.9056 3.48421L34.8686 2.97194L35.1364 4.09711L34.2124 4.95654L35.4251 4.94519L35.8923 5.99215L36.3712 4.85759Z" fill="white"/>
<path d="M39.4805 8.76774L40.6934 8.55438L39.7772 7.86512L40.0591 6.68559L39.015 7.39437L37.978 6.8821L38.2458 8.00726L37.3218 8.8667L38.5345 8.85535L39.0017 9.90231L39.4805 8.76774Z" fill="white"/>
<path d="M42.5977 12.6799L43.8106 12.4665L42.8944 11.7772L43.1762 10.5977L42.1322 11.3065L41.0952 10.7942L41.363 11.9194L40.439 12.7788L41.6516 12.7675L42.1189 13.8144L42.5977 12.6799Z" fill="white"/>
<path d="M41.0587 1.1193L42.2715 0.905945L41.3553 0.216685L41.6372 -0.962851L40.5931 -0.254068L39.5561 -0.766338L39.8239 0.358825L38.8999 1.21826L40.1126 1.20691L40.5798 2.25387L41.0587 1.1193Z" fill="white"/>
</g>
<path d="M17.716 22.0396C17.716 21.5703 17.78 21.1436 17.908 20.7596C18.0573 20.3543 18.26 19.9809 18.516 19.6396C18.772 19.2983 19.0707 18.9676 19.412 18.6476C19.7747 18.3276 20.1587 18.0076 20.564 17.6876C21.268 17.0903 21.812 16.5569 22.196 16.0876C22.6013 15.5969 22.804 15.0743 22.804 14.5196C22.804 13.8156 22.5907 13.2716 22.164 12.8876C21.7373 12.4823 21.076 12.2796 20.18 12.2796C19.3267 12.2796 18.676 12.5036 18.228 12.9516C17.78 13.3996 17.556 14.0289 17.556 14.8396H12.5C12.5 13.9223 12.6813 13.0689 13.044 12.2796C13.4067 11.4689 13.9187 10.7649 14.58 10.1676C15.2413 9.54893 16.0413 9.06893 16.98 8.72759C17.94 8.36493 19.0067 8.18359 20.18 8.18359C21.4173 8.18359 22.516 8.34359 23.476 8.6636C24.436 8.98359 25.236 9.42093 25.876 9.9756C26.5373 10.5303 27.028 11.1809 27.348 11.9276C27.6893 12.6743 27.86 13.4849 27.86 14.3596C27.86 15.0209 27.7747 15.6183 27.604 16.1516C27.4547 16.6849 27.2413 17.1756 26.964 17.6236C26.708 18.0503 26.4093 18.4449 26.068 18.8076C25.7267 19.1703 25.3853 19.5009 25.044 19.7996C24.4893 20.2903 24.052 20.6956 23.732 21.0156C23.412 21.3356 23.1667 21.6023 22.996 21.8156C22.8467 22.0289 22.7507 22.2209 22.708 22.3916C22.6653 22.5409 22.644 22.6903 22.644 22.8396V23.3196H17.716V22.0396ZM20.18 31.4156C19.3267 31.4156 18.6013 31.1276 18.004 30.5516C17.428 29.9543 17.14 29.2289 17.14 28.3756C17.14 27.5223 17.428 26.8076 18.004 26.2316C18.6013 25.6343 19.3267 25.3356 20.18 25.3356C21.0333 25.3356 21.748 25.6343 22.324 26.2316C22.9213 26.8076 23.22 27.5223 23.22 28.3756C23.22 29.2289 22.9213 29.9543 22.324 30.5516C21.748 31.1276 21.0333 31.4156 20.18 31.4156Z" fill="white"/>
</g>
<defs>
<linearGradient id="paint0_linear_4950_6202" x1="5.27273" y1="40" x2="33.0909" y2="2.18178" gradientUnits="userSpaceOnUse">
<stop stop-color="#0073FF"/>
<stop offset="1" stop-color="#00C2FF"/>
</linearGradient>
<clipPath id="clip0_4950_6202">
<rect width="40" height="40" fill="white"/>
</clipPath>
</defs>
</svg>
