<svg width="20" height="21" viewBox="0 0 20 21" fill="none" xmlns="http://www.w3.org/2000/svg">
<g clip-path="url(#clip0_5445_69828)">
<path d="M0.714286 2.53125H10C10.1894 2.53125 10.3711 2.60442 10.5051 2.73466C10.639 2.86489 10.7143 3.04152 10.7143 3.22569V8.78125C10.7143 8.96543 10.639 9.14209 10.5051 9.27233C10.3711 9.40256 10.1894 9.47569 10 9.47569H0.714286C0.524845 9.47569 0.343131 9.40256 0.209176 9.27233C0.0752216 9.14209 0 8.96543 0 8.78125V3.22569C0 3.04152 0.0752216 2.86489 0.209176 2.73466C0.343131 2.60442 0.524845 2.53125 0.714286 2.53125ZM9.64286 3.57292H1.07143V8.43403H9.64286V3.57292Z" fill="#363845"/>
<path d="M19.1071 10.8646H18.0357C18.0348 10.0821 17.7146 9.33196 17.1455 8.77866C16.5764 8.22537 15.8048 7.91411 15 7.91319V6.87153C16.0889 6.87281 17.1327 7.29395 17.9027 8.04251C18.6726 8.79108 19.1058 9.80595 19.1071 10.8646Z" fill="#363845"/>
<path d="M14.2007 6.86322H15.0121V7.90489H14.2007V6.86322Z" fill="#363845"/>
<path d="M12.015 7.89307C11.8747 7.76945 11.7906 7.59675 11.7812 7.41288C11.7718 7.22901 11.8379 7.04902 11.965 6.91252C11.9864 6.8903 12.0093 6.86878 12.0328 6.84864L13.1043 5.96321C13.209 5.87677 13.3372 5.82156 13.4734 5.80414C13.6096 5.78672 13.7481 5.80783 13.8722 5.865C13.9964 5.92217 14.101 6.01295 14.1735 6.12644C14.2459 6.23993 14.2831 6.37135 14.2807 6.5049L14.2486 8.31044C14.2463 8.44387 14.2046 8.57386 14.1283 8.68483C14.0521 8.7958 13.9446 8.88306 13.8187 8.93617C13.6927 8.98929 13.5538 9.006 13.4183 8.98432C13.2829 8.96264 13.1567 8.90345 13.055 8.81389L12.015 7.89307Z" fill="#363845"/>
<path d="M1.99783 6.00279H4.85498V7.39168H1.99783V6.00279Z" fill="#363845"/>
<path d="M10 12.2535H19.2857C19.4752 12.2535 19.6568 12.3266 19.7908 12.4569C19.9247 12.5871 20 12.7637 20 12.9479V18.5035C20 18.6877 19.9247 18.8643 19.7908 18.9946C19.6568 19.1248 19.4752 19.1979 19.2857 19.1979H10C9.81056 19.1979 9.62885 19.1248 9.49489 18.9946C9.36094 18.8643 9.28572 18.6877 9.28572 18.5035V12.9479C9.28572 12.7637 9.36094 12.5871 9.49489 12.4569C9.62885 12.3266 9.81056 12.2535 10 12.2535ZM18.9286 13.2951H10.3571V18.1563H18.9286V13.2951Z" fill="#363845"/>
<path d="M5 14.8576C3.91113 14.8563 2.86721 14.4353 2.09726 13.6867C1.3273 12.9381 0.894182 11.9232 0.892859 10.8646H1.96429C1.96523 11.647 2.28534 12.3972 2.85444 12.9505C3.42354 13.5038 4.19517 13.815 5 13.816V14.8576Z" fill="#363845"/>
<path d="M5.79926 14.8681H4.98784V13.8264H5.79926V14.8681Z" fill="#363845"/>
<path d="M7.98281 13.8354C8.12313 13.959 8.20724 14.1318 8.21662 14.3156C8.22599 14.4995 8.15987 14.6795 8.03281 14.816C8.012 14.8392 7.98933 14.8608 7.96498 14.8806L6.89355 15.7653C6.78881 15.8517 6.66063 15.907 6.52442 15.9244C6.38821 15.9418 6.24972 15.9206 6.12555 15.8635C6.00139 15.8063 5.89683 15.7155 5.82439 15.602C5.75194 15.4886 5.71467 15.3572 5.7171 15.2236L5.74923 13.418C5.75147 13.2846 5.79323 13.1547 5.86947 13.0437C5.94571 12.9327 6.05322 12.8455 6.17913 12.7923C6.30505 12.7392 6.44405 12.7225 6.57948 12.7442C6.71492 12.7659 6.84106 12.825 6.94281 12.9146L7.98281 13.8354Z" fill="#363845"/>
<path d="M14.855 14.3361H17.7121V15.725H14.855V14.3361Z" fill="#363845"/>
<path d="M0.714286 2.53125H10C10.1894 2.53125 10.3711 2.60442 10.5051 2.73466C10.639 2.86489 10.7143 3.04152 10.7143 3.22569V8.78125C10.7143 8.96543 10.639 9.14209 10.5051 9.27233C10.3711 9.40256 10.1894 9.47569 10 9.47569H0.714286C0.524845 9.47569 0.343131 9.40256 0.209176 9.27233C0.0752216 9.14209 0 8.96543 0 8.78125V3.22569C0 3.04152 0.0752216 2.86489 0.209176 2.73466C0.343131 2.60442 0.524845 2.53125 0.714286 2.53125ZM9.64286 3.57292H1.07143V8.43403H9.64286V3.57292Z" stroke="#363845" stroke-width="0.5"/>
<path d="M19.1071 10.8646H18.0357C18.0348 10.0821 17.7146 9.33196 17.1455 8.77866C16.5764 8.22537 15.8048 7.91411 15 7.91319V6.87153C16.0889 6.87281 17.1327 7.29395 17.9027 8.04251C18.6726 8.79108 19.1058 9.80595 19.1071 10.8646Z" stroke="#363845" stroke-width="0.5"/>
<path d="M14.2007 6.86322H15.0121V7.90489H14.2007V6.86322Z" stroke="#363845" stroke-width="0.5"/>
<path d="M12.015 7.89307C11.8747 7.76945 11.7906 7.59675 11.7812 7.41288C11.7718 7.22901 11.8379 7.04902 11.965 6.91252C11.9864 6.8903 12.0093 6.86878 12.0328 6.84864L13.1043 5.96321C13.209 5.87677 13.3372 5.82156 13.4734 5.80414C13.6096 5.78672 13.7481 5.80783 13.8722 5.865C13.9964 5.92217 14.101 6.01295 14.1735 6.12644C14.2459 6.23993 14.2831 6.37135 14.2807 6.5049L14.2486 8.31044C14.2463 8.44387 14.2046 8.57386 14.1283 8.68483C14.0521 8.7958 13.9446 8.88306 13.8187 8.93617C13.6927 8.98929 13.5538 9.006 13.4183 8.98432C13.2829 8.96264 13.1567 8.90345 13.055 8.81389L12.015 7.89307Z" stroke="#363845" stroke-width="0.5"/>
<path d="M1.99783 6.00279H4.85498V7.39168H1.99783V6.00279Z" stroke="#363845" stroke-width="0.5"/>
<path d="M10 12.2535H19.2857C19.4752 12.2535 19.6568 12.3266 19.7908 12.4569C19.9247 12.5871 20 12.7637 20 12.9479V18.5035C20 18.6877 19.9247 18.8643 19.7908 18.9946C19.6568 19.1248 19.4752 19.1979 19.2857 19.1979H10C9.81056 19.1979 9.62885 19.1248 9.49489 18.9946C9.36094 18.8643 9.28572 18.6877 9.28572 18.5035V12.9479C9.28572 12.7637 9.36094 12.5871 9.49489 12.4569C9.62885 12.3266 9.81056 12.2535 10 12.2535ZM18.9286 13.2951H10.3571V18.1563H18.9286V13.2951Z" stroke="#363845" stroke-width="0.5"/>
<path d="M5 14.8576C3.91113 14.8563 2.86721 14.4353 2.09726 13.6867C1.3273 12.9381 0.894182 11.9232 0.892859 10.8646H1.96429C1.96523 11.647 2.28534 12.3972 2.85444 12.9505C3.42354 13.5038 4.19517 13.815 5 13.816V14.8576Z" stroke="#363845" stroke-width="0.5"/>
<path d="M5.79926 14.8681H4.98784V13.8264H5.79926V14.8681Z" stroke="#363845" stroke-width="0.5"/>
<path d="M7.98281 13.8354C8.12313 13.959 8.20724 14.1318 8.21662 14.3156C8.22599 14.4995 8.15987 14.6795 8.03281 14.816C8.012 14.8392 7.98933 14.8608 7.96498 14.8806L6.89355 15.7653C6.78881 15.8517 6.66063 15.907 6.52442 15.9244C6.38821 15.9418 6.24972 15.9206 6.12555 15.8635C6.00139 15.8063 5.89683 15.7155 5.82439 15.602C5.75194 15.4886 5.71467 15.3572 5.7171 15.2236L5.74923 13.418C5.75147 13.2846 5.79323 13.1547 5.86947 13.0437C5.94571 12.9327 6.05322 12.8455 6.17913 12.7923C6.30505 12.7392 6.44405 12.7225 6.57948 12.7442C6.71492 12.7659 6.84106 12.825 6.94281 12.9146L7.98281 13.8354Z" stroke="#363845" stroke-width="0.5"/>
<path d="M14.855 14.3361H17.7121V15.725H14.855V14.3361Z" stroke="#363845" stroke-width="0.5"/>
</g>
<defs>
<clipPath id="clip0_5445_69828">
<rect width="20" height="20" fill="white" transform="translate(0 0.865234)"/>
</clipPath>
</defs>
</svg>
