<svg width="24" height="24" viewBox="0 0 24 24" fill="none" xmlns="http://www.w3.org/2000/svg">
<g clip-path="url(#clip0_5119_44996)">
<g filter="url(#filter0_d_5119_44996)">
<path d="M10.8031 7.19961C10.8031 8.15439 10.4238 9.07006 9.74871 9.74519C9.07358 10.4203 8.1579 10.7996 7.20312 10.7996C6.24835 10.7996 5.33267 10.4203 4.65754 9.74519C3.98241 9.07006 3.60313 8.15439 3.60313 7.19961C3.60313 6.24483 3.98241 5.32916 4.65754 4.65402C5.33267 3.97889 6.24835 3.59961 7.20312 3.59961C8.1579 3.59961 9.07358 3.97889 9.74871 4.65402C10.4238 5.32916 10.8031 6.24483 10.8031 7.19961ZM20.4031 7.19961C20.4031 7.67237 20.31 8.1405 20.1291 8.57727C19.9482 9.01404 19.683 9.4109 19.3487 9.74519C19.0144 10.0795 18.6176 10.3447 18.1808 10.5256C17.744 10.7065 17.2759 10.7996 16.8031 10.7996C16.3304 10.7996 15.8622 10.7065 15.4255 10.5256C14.9887 10.3447 14.5918 10.0795 14.2575 9.74519C13.9233 9.4109 13.6581 9.01404 13.4772 8.57727C13.2962 8.1405 13.2031 7.67237 13.2031 7.19961C13.2031 6.24483 13.5824 5.32916 14.2575 4.65402C14.9327 3.97889 15.8483 3.59961 16.8031 3.59961C17.7579 3.59961 18.6736 3.97889 19.3487 4.65402C20.0238 5.32916 20.4031 6.24483 20.4031 7.19961ZM15.5191 20.3996C15.5743 20.0072 15.6031 19.6076 15.6031 19.1996C15.6059 17.3142 14.9716 15.4832 13.8031 14.0036C14.7152 13.477 15.7499 13.1998 16.8031 13.1998C17.8563 13.1998 18.8909 13.477 19.8031 14.0036C20.7152 14.5302 21.4726 15.2876 21.9992 16.1997C22.5258 17.1118 22.8031 18.1464 22.8031 19.1996V20.3996H15.5191ZM7.20312 13.1996C8.79442 13.1996 10.3205 13.8317 11.4458 14.957C12.571 16.0822 13.2031 17.6083 13.2031 19.1996V20.3996H1.20312V19.1996C1.20313 17.6083 1.83527 16.0822 2.96048 14.957C4.0857 13.8317 5.61183 13.1996 7.20312 13.1996Z" fill="#FCFE5D"/>
</g>
</g>
<defs>
<filter id="filter0_d_5119_44996" x="-2.79688" y="0.599609" width="29.6016" height="24.8008" filterUnits="userSpaceOnUse" color-interpolation-filters="sRGB">
<feFlood flood-opacity="0" result="BackgroundImageFix"/>
<feColorMatrix in="SourceAlpha" type="matrix" values="0 0 0 0 0 0 0 0 0 0 0 0 0 0 0 0 0 0 127 0" result="hardAlpha"/>
<feOffset dy="1"/>
<feGaussianBlur stdDeviation="2"/>
<feComposite in2="hardAlpha" operator="out"/>
<feColorMatrix type="matrix" values="0 0 0 0 0.988235 0 0 0 0 0.996078 0 0 0 0 0.364706 0 0 0 0.35 0"/>
<feBlend mode="normal" in2="BackgroundImageFix" result="effect1_dropShadow_5119_44996"/>
<feBlend mode="normal" in="SourceGraphic" in2="effect1_dropShadow_5119_44996" result="shape"/>
</filter>
<clipPath id="clip0_5119_44996">
<rect width="24" height="24" fill="white"/>
</clipPath>
</defs>
</svg>
