<svg width="47" height="47" viewBox="0 0 47 47" fill="none" xmlns="http://www.w3.org/2000/svg">
<g filter="url(#filter0_d_4681_35938)">
<circle cx="23.5" cy="21.5" r="13.5" fill="url(#paint0_linear_4681_35938)"/>
<circle cx="23.5" cy="21.5" r="13.25" stroke="url(#paint1_linear_4681_35938)" stroke-opacity="0.35" stroke-width="0.5"/>
</g>
<g filter="url(#filter1_di_4681_35938)">
<circle cx="23.5" cy="21.5" r="10.5" fill="url(#paint2_linear_4681_35938)"/>
</g>
<path fill-rule="evenodd" clip-rule="evenodd" d="M23.5 18C24.3284 18 25 17.3284 25 16.5C25 15.6716 24.3284 15 23.5 15C22.6716 15 22 15.6716 22 16.5C22 17.3284 22.6716 18 23.5 18ZM23.5 19C22.6716 19 22 19.6716 22 20.5V26.5C22 27.3284 22.6716 28 23.5 28C24.3284 28 25 27.3284 25 26.5V20.5C25 19.6716 24.3284 19 23.5 19Z" fill="white"/>
<defs>
<filter id="filter0_d_4681_35938" x="0" y="0" width="47" height="47" filterUnits="userSpaceOnUse" color-interpolation-filters="sRGB">
<feFlood flood-opacity="0" result="BackgroundImageFix"/>
<feColorMatrix in="SourceAlpha" type="matrix" values="0 0 0 0 0 0 0 0 0 0 0 0 0 0 0 0 0 0 127 0" result="hardAlpha"/>
<feOffset dy="2"/>
<feGaussianBlur stdDeviation="5"/>
<feComposite in2="hardAlpha" operator="out"/>
<feColorMatrix type="matrix" values="0 0 0 0 0 0 0 0 0 0.870588 0 0 0 0 1 0 0 0 0.5 0"/>
<feBlend mode="normal" in2="BackgroundImageFix" result="effect1_dropShadow_4681_35938"/>
<feBlend mode="normal" in="SourceGraphic" in2="effect1_dropShadow_4681_35938" result="shape"/>
</filter>
<filter id="filter1_di_4681_35938" x="9" y="9" width="29" height="29" filterUnits="userSpaceOnUse" color-interpolation-filters="sRGB">
<feFlood flood-opacity="0" result="BackgroundImageFix"/>
<feColorMatrix in="SourceAlpha" type="matrix" values="0 0 0 0 0 0 0 0 0 0 0 0 0 0 0 0 0 0 127 0" result="hardAlpha"/>
<feOffset dy="2"/>
<feGaussianBlur stdDeviation="2"/>
<feComposite in2="hardAlpha" operator="out"/>
<feColorMatrix type="matrix" values="0 0 0 0 0 0 0 0 0 0.45098 0 0 0 0 1 0 0 0 1 0"/>
<feBlend mode="normal" in2="BackgroundImageFix" result="effect1_dropShadow_4681_35938"/>
<feBlend mode="normal" in="SourceGraphic" in2="effect1_dropShadow_4681_35938" result="shape"/>
<feColorMatrix in="SourceAlpha" type="matrix" values="0 0 0 0 0 0 0 0 0 0 0 0 0 0 0 0 0 0 127 0" result="hardAlpha"/>
<feOffset dy="2"/>
<feGaussianBlur stdDeviation="1.5"/>
<feComposite in2="hardAlpha" operator="arithmetic" k2="-1" k3="1"/>
<feColorMatrix type="matrix" values="0 0 0 0 0 0 0 0 0 0.870588 0 0 0 0 1 0 0 0 1 0"/>
<feBlend mode="normal" in2="shape" result="effect2_innerShadow_4681_35938"/>
</filter>
<linearGradient id="paint0_linear_4681_35938" x1="23.5" y1="8" x2="23.5" y2="35" gradientUnits="userSpaceOnUse">
<stop stop-color="#0073FF"/>
<stop offset="1" stop-color="#00DEFF"/>
</linearGradient>
<linearGradient id="paint1_linear_4681_35938" x1="23.5" y1="8" x2="23.5" y2="35" gradientUnits="userSpaceOnUse">
<stop stop-color="#00DEFF"/>
<stop offset="1" stop-color="#0073FF"/>
</linearGradient>
<linearGradient id="paint2_linear_4681_35938" x1="23.5" y1="11" x2="23.5" y2="32" gradientUnits="userSpaceOnUse">
<stop stop-color="#0073FF"/>
<stop offset="0.760417" stop-color="#00DEFF"/>
</linearGradient>
</defs>
</svg>
