<svg width="100" height="100" viewBox="0 0 100 100" fill="none" xmlns="http://www.w3.org/2000/svg">
<rect width="100" height="100" fill="url(#paint0_linear_4903_35754)"/>
<rect width="100" height="100" fill="url(#paint1_angular_4903_35754)" fill-opacity="0.15"/>
<path d="M45.5271 55.0317C45.5271 54.0822 45.6562 53.219 45.9146 52.4421C46.216 51.6221 46.625 50.8669 47.1417 50.1763C47.6583 49.4858 48.2611 48.8168 48.95 48.1694C49.6819 47.522 50.4569 46.8747 51.275 46.2273C52.6958 45.0188 53.7937 43.9399 54.5687 42.9904C55.3868 41.9977 55.7958 40.9403 55.7958 39.8182C55.7958 38.3939 55.3653 37.2934 54.5042 36.5165C53.6431 35.6965 52.3083 35.2865 50.5 35.2865C48.7778 35.2865 47.4646 35.7397 46.5604 36.646C45.6562 37.5523 45.2042 38.8255 45.2042 40.4656H35C35 38.6097 35.366 36.8834 36.0979 35.2865C36.8299 33.6465 37.8632 32.2222 39.1979 31.0138C40.5326 29.7622 42.1472 28.7911 44.0417 28.1006C45.9792 27.3669 48.1319 27 50.5 27C52.9972 27 55.2146 27.3237 57.1521 27.9711C59.0896 28.6185 60.7042 29.5032 61.9958 30.6253C63.3306 31.7475 64.3208 33.0638 64.9667 34.5744C65.6556 36.0849 66 37.725 66 39.4945C66 40.8324 65.8278 42.0409 65.4833 43.1198C65.1819 44.1988 64.7514 45.1915 64.1917 46.0978C63.675 46.961 63.0722 47.7594 62.3833 48.4931C61.6944 49.2268 61.0056 49.8958 60.3167 50.5C59.1972 51.4927 58.3146 52.3127 57.6687 52.9601C57.0229 53.6074 56.5278 54.1469 56.1833 54.5785C55.8819 55.0101 55.6882 55.3985 55.6021 55.7438C55.516 56.0459 55.4729 56.348 55.4729 56.6501V57.6212H45.5271V55.0317ZM50.5 74C48.7778 74 47.3139 73.4174 46.1083 72.2521C44.9458 71.0436 44.3646 69.5762 44.3646 67.8499C44.3646 66.1235 44.9458 64.6777 46.1083 63.5124C47.3139 62.304 48.7778 61.6997 50.5 61.6997C52.2222 61.6997 53.6646 62.304 54.8271 63.5124C56.0326 64.6777 56.6354 66.1235 56.6354 67.8499C56.6354 69.5762 56.0326 71.0436 54.8271 72.2521C53.6646 73.4174 52.2222 74 50.5 74Z" fill="white"/>
<defs>
<linearGradient id="paint0_linear_4903_35754" x1="13.1818" y1="100" x2="82.7272" y2="5.45445" gradientUnits="userSpaceOnUse">
<stop stop-color="#0073FF"/>
<stop offset="1" stop-color="#00C2FF"/>
</linearGradient>
<radialGradient id="paint1_angular_4903_35754" cx="0" cy="0" r="1" gradientUnits="userSpaceOnUse" gradientTransform="translate(50 50) rotate(90) scale(50)">
<stop offset="0.00524174" stop-color="white"/>
<stop offset="0.0472951" stop-color="white" stop-opacity="0"/>
<stop offset="0.11311" stop-color="white"/>
<stop offset="0.181583" stop-color="white" stop-opacity="0"/>
<stop offset="0.255277" stop-color="white"/>
<stop offset="0.312003" stop-color="white" stop-opacity="0"/>
<stop offset="0.367116" stop-color="white"/>
<stop offset="0.421868" stop-color="white" stop-opacity="0"/>
<stop offset="0.474341" stop-color="white"/>
<stop offset="0.530695" stop-color="white" stop-opacity="0"/>
<stop offset="0.58164" stop-color="white"/>
<stop offset="0.633107" stop-color="white" stop-opacity="0"/>
<stop offset="0.674568" stop-color="white"/>
<stop offset="0.723885" stop-color="white" stop-opacity="0.355027"/>
<stop offset="0.751455" stop-color="white" stop-opacity="0.663312"/>
<stop offset="0.780998" stop-color="white"/>
<stop offset="0.847139" stop-color="white" stop-opacity="0"/>
<stop offset="0.880925" stop-color="white"/>
<stop offset="0.926252" stop-color="white" stop-opacity="0"/>
<stop offset="0.965311" stop-color="white"/>
</radialGradient>
</defs>
</svg>
