<svg width="10" height="14" viewBox="0 0 10 14" fill="none" xmlns="http://www.w3.org/2000/svg">
<path fill-rule="evenodd" clip-rule="evenodd" d="M6.12495 0.625289C6.12502 0.4879 6.07981 0.354317 5.99633 0.245203C5.91284 0.136089 5.79573 0.057525 5.6631 0.0216647C5.53047 -0.0141956 5.38973 -0.00535404 5.26263 0.0468217C5.13553 0.0989975 5.02917 0.1916 4.96 0.310304L0.585182 7.80996C0.529758 7.90493 0.500377 8.01285 0.500004 8.12282C0.49963 8.23279 0.528278 8.3409 0.583055 8.43626C0.637832 8.53161 0.716799 8.61082 0.811981 8.66589C0.907164 8.72096 1.01519 8.74995 1.12516 8.74991H3.62505V13.1247C3.62498 13.2621 3.67019 13.3957 3.75367 13.5048C3.83716 13.6139 3.95427 13.6925 4.0869 13.7283C4.21953 13.7642 4.36027 13.7554 4.48737 13.7032C4.61447 13.651 4.72083 13.5584 4.79 13.4397L9.16482 5.94004C9.22024 5.84506 9.24962 5.73714 9.25 5.62718C9.25037 5.51721 9.22172 5.4091 9.16694 5.31374C9.11217 5.21839 9.0332 5.13918 8.93802 5.08411C8.84284 5.02904 8.73481 5.00005 8.62484 5.00009H6.12495V0.625289Z" fill="#FCFE5D"/>
</svg>
