<svg width="360" height="770" viewBox="0 0 360 770" fill="none" xmlns="http://www.w3.org/2000/svg">
<path d="M124.3 -89L180.061 384.707L236 -89H124.3ZM-25.4596 -42.0895L-75.7335 -17.8377L180.061 384.707L24.8143 -66.3413L-25.4596 -42.0895ZM-224.962 132.984L180.239 384.707L-155.393 45.7128L-224.962 132.984ZM-281.609 279.203L-294 333.548L180.239 384.53L-269.217 224.858L-281.609 279.203ZM-281.609 490.035L-269.217 544.38L180.239 384.53L-294 435.512L-281.609 490.035ZM-190.266 679.978L-155.57 723.525L180.061 384.53L-224.962 636.431L-190.266 679.978ZM-25.4596 811.504L24.8143 835.756L180.061 384.707L-75.5564 787.253L-25.4596 811.504ZM236 858.415L180.239 384.707L124.477 858.415H236ZM385.583 811.504L435.856 787.253L180.061 384.707L335.309 835.756L385.583 811.504ZM550.566 679.978L585.262 636.431L180.061 384.707L515.693 723.702L550.566 679.978ZM629.517 544.557L641.909 490.212L654.3 435.866L180.061 384.884L629.517 544.557ZM641.909 279.203L629.517 224.858L180.061 384.707L654.3 333.725L641.909 279.203ZM515.693 45.7128L180.061 384.707L585.262 132.984L515.693 45.7128ZM385.583 -42.0895L335.309 -66.3413L180.061 384.707L435.856 -17.8377L385.583 -42.0895Z" fill="url(#paint0_radial_5211_8606)" fill-opacity="0.35"/>
<defs>
<radialGradient id="paint0_radial_5211_8606" cx="0" cy="0" r="1" gradientUnits="userSpaceOnUse" gradientTransform="translate(180.138 384.696) scale(473.963 473.963)">
<stop stop-color="white" stop-opacity="0.25"/>
<stop offset="0.411458" stop-color="white" stop-opacity="0.05"/>
</radialGradient>
</defs>
</svg>
