<svg width="949" height="948" viewBox="0 0 949 948" fill="none" xmlns="http://www.w3.org/2000/svg">
<path d="M418.3 0L474.061 473.707L530 0H418.3ZM268.54 46.9105L218.267 71.1623L474.061 473.707L318.814 22.6587L268.54 46.9105ZM69.038 221.984L474.239 473.707L138.607 134.713L69.038 221.984ZM12.391 368.203L0 422.548L474.239 473.53L24.783 313.858L12.391 368.203ZM12.391 579.035L24.783 633.38L474.239 473.53L0 524.512L12.391 579.035ZM103.734 768.978L138.43 812.525L474.061 473.53L69.038 725.431L103.734 768.978ZM268.54 900.504L318.814 924.756L474.061 473.707L218.444 876.253L268.54 900.504ZM530 947.415L474.239 473.707L418.477 947.415H530ZM679.583 900.504L729.856 876.253L474.061 473.707L629.309 924.756L679.583 900.504ZM844.566 768.978L879.262 725.431L474.061 473.707L809.693 812.702L844.566 768.978ZM923.517 633.557L935.909 579.212L948.3 524.866L474.061 473.884L923.517 633.557ZM935.909 368.203L923.517 313.858L474.061 473.707L948.3 422.725L935.909 368.203ZM809.693 134.713L474.061 473.707L879.262 221.984L809.693 134.713ZM679.583 46.9105L629.309 22.6587L474.061 473.707L729.856 71.1623L679.583 46.9105Z" fill="url(#paint0_radial_5292_41854)" fill-opacity="0.35"/>
<defs>
<radialGradient id="paint0_radial_5292_41854" cx="0" cy="0" r="1" gradientUnits="userSpaceOnUse" gradientTransform="translate(474.138 473.696) scale(473.963 473.963)">
<stop stop-color="white" stop-opacity="0.25"/>
<stop offset="0.411458" stop-color="white" stop-opacity="0.05"/>
</radialGradient>
</defs>
</svg>
